/* XPM */
static char * collect_xpm[] = {
"40 54 301 2",
"  	c #6AA542",
". 	c #91CC55",
"+ 	c #649A3D",
"@ 	c #588D37",
"# 	c #5B9139",
"$ 	c #6DA843",
"% 	c #88C551",
"& 	c #73AF46",
"* 	c #5F983C",
"= 	c #619A3D",
"- 	c #7EB74B",
"; 	c #6BA241",
"> 	c #5D953B",
", 	c #7BB54A",
"' 	c #6FAD45",
") 	c #78B549",
"! 	c #70AF46",
"~ 	c #6AA843",
"{ 	c #6FAB44",
"] 	c #66A240",
"^ 	c #76AF47",
"/ 	c #99D358",
"( 	c #68A442",
"_ 	c #70A844",
": 	c #7EBB4C",
"< 	c #88C250",
"[ 	c #86BF4F",
"} 	c #79B248",
"| 	c #94CE56",
"1 	c #639D3E",
"2 	c #85C24F",
"3 	c #75B147",
"4 	c #659F3F",
"5 	c #72AA45",
"6 	c #74AD46",
"7 	c #82C04E",
"8 	c #8BC752",
"9 	c #689F3F",
"0 	c #8DC953",
"a 	c #6DA542",
"b 	c #81BA4C",
"c 	c #83BD4D",
"d 	c #9CD65A",
"e 	c #74B448",
"f 	c #8FCA54",
"g 	c #8BC451",
"h 	c #96D057",
"i 	c #6CAB44",
"j 	c #76B849",
"k 	c #A8A09F",
"l 	c #CBC4B1",
"m 	c #D7D0B9",
"n 	c #DDD4B6",
"o 	c #DED5B9",
"p 	c #CCC5B6",
"q 	c #E7DDBA",
"r 	c #EADDAD",
"s 	c #EBE0B7",
"t 	c #E7DBB3",
"u 	c #E4D7A6",
"v 	c #E4D5A9",
"w 	c #E4D7AB",
"x 	c #E7D9AD",
"y 	c #DCCEA3",
"z 	c #DCCFAA",
"A 	c #72B147",
"B 	c #F4E8B9",
"C 	c #EBDFB7",
"D 	c #E7E1C6",
"E 	c #E1DABE",
"F 	c #DAD1B3",
"G 	c #E7DBAF",
"H 	c #E8DEB5",
"I 	c #7EBD4C",
"J 	c #F4EAB4",
"K 	c #F9F3CF",
"L 	c #E8E9DF",
"M 	c #DBDED7",
"N 	c #F6F7EE",
"O 	c #FBFEF9",
"P 	c #F9FAF4",
"Q 	c #EBE8D8",
"R 	c #F1EFD8",
"S 	c #F5F4DF",
"T 	c #DFCB9D",
"U 	c #7AB94A",
"V 	c #D4DCE1",
"W 	c #CCD1D2",
"X 	c #DBD9CC",
"Y 	c #FFFFFB",
"Z 	c #F2F3E8",
"` 	c #D1C6A5",
" .	c #E0D5B4",
"..	c #E5D3A8",
"+.	c #E2DCC2",
"@.	c #CDD5DC",
"#.	c #D5D1C1",
"$.	c #E3E6DC",
"%.	c #E1D9B9",
"&.	c #F5EDBB",
"*.	c #C4CCD4",
"=.	c #ECFDFA",
"-.	c #EBF3F0",
";.	c #CDCFCB",
">.	c #C3B392",
",.	c #D0B391",
"'.	c #E6E5D3",
").	c #D6CDAC",
"!.	c #E5DDC0",
"~.	c #EEEAD2",
"{.	c #F4EFCE",
"].	c #B5B2AE",
"^.	c #BEA28B",
"/.	c #A48D7B",
"(.	c #C8C1B1",
"_.	c #DED6B7",
":.	c #BCC4CD",
"<.	c #D8EAEE",
"[.	c #B7C3D6",
"}.	c #A89183",
"|.	c #AF9C82",
"1.	c #8B84A0",
"2.	c #C1BAA8",
"3.	c #BDB39F",
"4.	c #BEC0C1",
"5.	c #CADEEB",
"6.	c #BCCADB",
"7.	c #ACB5C6",
"8.	c #8D909F",
"9.	c #857A6E",
"0.	c #998E87",
"a.	c #EAEDE3",
"b.	c #ADA196",
"c.	c #A5A29F",
"d.	c #B3BDCE",
"e.	c #AEBACE",
"f.	c #A7BDD7",
"g.	c #92A5C2",
"h.	c #6F6C75",
"i.	c #9CA5B0",
"j.	c #ADA59D",
"k.	c #9DA7C3",
"l.	c #8794B3",
"m.	c #8EABD0",
"n.	c #9BBDE7",
"o.	c #6C7085",
"p.	c #C3D1DE",
"q.	c #F3EDCC",
"r.	c #ECE9CF",
"s.	c #787188",
"t.	c #8687A1",
"u.	c #CBCFCD",
"v.	c #E2DFC8",
"w.	c #7D8094",
"x.	c #9D9EA7",
"y.	c #949BAF",
"z.	c #637DAC",
"A.	c #6C89BB",
"B.	c #8CADDC",
"C.	c #7B8DAE",
"D.	c #9CBCDE",
"E.	c #615D71",
"F.	c #726B78",
"G.	c #8B8282",
"H.	c #868795",
"I.	c #7682A4",
"J.	c #5A73A4",
"K.	c #51699D",
"L.	c #7693C3",
"M.	c #95B6E2",
"N.	c #A5C5E8",
"O.	c #BBD9ED",
"P.	c #4B4960",
"Q.	c #3A3C4E",
"R.	c #605A4F",
"S.	c #776E5C",
"T.	c #5D5A5E",
"U.	c #535563",
"V.	c #5D6179",
"W.	c #4E6393",
"X.	c #3D538B",
"Y.	c #81A0D0",
"Z.	c #403E3D",
"`.	c #585244",
" +	c #343541",
".+	c #2C3556",
"++	c #2F3D6B",
"@+	c #33477E",
"#+	c #536DA2",
"$+	c #ACCBDC",
"%+	c #686075",
"&+	c #948B8F",
"*+	c #292B38",
"=+	c #484643",
"-+	c #262D4A",
";+	c #202C59",
">+	c #243366",
",+	c #445A91",
"'+	c #697395",
")+	c #736F8B",
"!+	c #36354D",
"~+	c #1E2338",
"{+	c #1B2449",
"]+	c #29396F",
"^+	c #646E90",
"/+	c #C6BA99",
"(+	c #EAE4C9",
"_+	c #434256",
":+	c #151A33",
"<+	c #161F42",
"[+	c #1E2850",
"}+	c #304178",
"|+	c #3D4F84",
"1+	c #6F7BA0",
"2+	c #9099B8",
"3+	c #948D8B",
"4+	c #EEEDDD",
"5+	c #BDB5A9",
"6+	c #6E6A85",
"7+	c #575A72",
"8+	c #3C4052",
"9+	c #514C43",
"0+	c #141B3D",
"a+	c #5E698E",
"b+	c #97A1BE",
"c+	c #475785",
"d+	c #5D5C6C",
"e+	c #6A6569",
"f+	c #AFA16E",
"g+	c #D7C77F",
"h+	c #C7BDA6",
"i+	c #858AA0",
"j+	c #767F9D",
"k+	c #6E727F",
"l+	c #696351",
"m+	c #2D385F",
"n+	c #9F9263",
"o+	c #DDCF8B",
"p+	c #B8C6D1",
"q+	c #A6BDCD",
"r+	c #99B0C5",
"s+	c #444E71",
"t+	c #576289",
"u+	c #565248",
"v+	c #B6C3CB",
"w+	c #8D8C95",
"x+	c #5F6684",
"y+	c #D8C782",
"z+	c #858297",
"A+	c #707493",
"B+	c #424B6B",
"C+	c #818BA6",
"D+	c #63627B",
"E+	c #686A7C",
"F+	c #384264",
"G+	c #A5AFCC",
"H+	c #A3ADCB",
"I+	c #727A98",
"J+	c #BCAC71",
"K+	c #D0C194",
"L+	c #6C6782",
"M+	c #616382",
"N+	c #4D5779",
"O+	c #AAB4D1",
"P+	c #66617B",
"Q+	c #707393",
"R+	c #888BA3",
"S+	c #7B81A2",
"T+	c #B1BCD6",
"U+	c #C0AF83",
"V+	c #87849D",
"W+	c #747089",
"X+	c #757793",
"Y+	c #868FAF",
"Z+	c #847979",
"`+	c #868CAE",
" @	c #B2A69B",
".@	c #8C92B1",
"+@	c #7C87A9",
"@@	c #877D83",
"#@	c #686078",
"$@	c #767A9B",
"%@	c #626A90",
"&@	c #AAA3A5",
"*@	c #666685",
"=@	c #7E7B94",
"-@	c #887E87",
";@	c #77717F",
">@	c #9F989A",
",@	c #797889",
"'@	c #6A6375",
")@	c #696F91",
"!@	c #6A759B",
"~@	c #676C91",
"{@	c #7F737B",
"]@	c #726D82",
"^@	c #716775",
"/@	c #726674",
"(@	c #7F747E",
"_@	c #8C8792",
":@	c #7E7785",
"  . + @ # # $ % & * = # - ; > , ' , ) ! ! ~ { { ] ^ / ^ # ( )   # ~ > _ : ] ] < ",
"- [ # } ~ # ] ] ] ] ( @ - | @ > = 1 ] =   = ^ : > 2 3 1 1 4 3 5 6 7 8 _ : 9 . 0 ",
", a b c # @ # ] > 4 2 ' ; d 4 e # = & 1 @ { # ! e ! > 4 ~ % 2 < 8   ^ f ' 0 g # ",
"b a 0 1 @ = ) h [ 1 b f 1 h { = ^ / 8 ] # ] 1 ( !   4 3 i & f 2 ~ 4 ) e : 7 # 3 ",
"b = ' @ @ @ > , h 8 j h : ' ] , d f = ( 1 2 - ( 1 1 $ h b 1 7 ) a h g # e 1 ' 3 ",
"* @ # ( : 2 c } 9 3 j k l m m m n o o o l p k > ] 7 : 0 / +   ' / | = @ ( ' i @ ",
"+ # 1 ! : % . | 2 ' o q r s s s s t t u v w x y z m k : d } ] 8 / 9 * > > ( @ $ ",
"^ @ @ @ # _ * 4 A k x B B C C C C D D E F 1 e G t r x H m k ! h 3 @ > I ~ > $ % ",
"9 6 @ > b , @ # 4 ~ z J K L M D E N O P N Q R S B C T T r x z p   > > f ! 4 2 _ ",
"[ 5 @ } , > , h . U l r R V W E X P Y Y Y Z S K B K ] `  ...u x +.k - . a A ^ ( ",
"} > + , 9 8 / c   1 n J R @.W #.Q Y O Y P $. .....K R Z N Q E G t %.n 2 4 e ] j ",
"* $ 4 + : 7 9 > = = H &.D *.W X Z O =.O -.;.>.,.T E N Y Y Y P '.).6 r !.l $ < h ",
"( 1 ; | 0 > + _ 6 } ~.{.'.*.W '.N =.=.=.@.].^./.^.(.N O Y Y Y L (.` { T w o 7 } ",
"( * h g * ~ % | | h +._.#.:.*.$.Z -.=.<.[.> }./.|.(.Z P Y Y P X (.X Q ] C %.1.@ ",
"= f g ] @ @ @ * 1 4 o 2.3.4.:.M L 5.5.6.7.8.9.9.0.4.a.P O N Z X #.N N C s !.1.' ",
") < # ( * ] ] ] # 1.z b.c.].d.W W e.e.f.f.g.h.h.i.:.a.P -.L a.X $.O S s z k % $ ",
"i # ' 3 1 ( i 4 [ p %.j.8.].7.7.k.l.m.n.n.m.o.l.p.W $.-.$.$.a.a.N Z q.r.k { f = ",
"= 4 4 c < i ~ s.t.u.v.# w.x.y.l.z.A.B.n.n.m.C.D.5.<.M $.M $.Z N N R {.!.1., 2 @ ",
"4 = 4 = [ 2 A E.F.# j.G.o.H.I.J.K.L.B.M.n.m.m.N.O.O.:.;.M $.Z S '.'.r.p - : U b ",
", 8 c ] # . 1.P.Q.R.S.T.U.V.W.X.J.Y.B.M.n.N.N.n.n.M.g.].#.L S D #.v.+._ | % I h ",
"1 ; c . ) ) c P.Q.Z.`.Z. +.+++@+#+A.Y.D.$+$+O.n.M.B.L.8.(.Q E ).F q p # ; 8 I : ",
"; - = a g e ) %+&+*+=+Z.*+-+;+>+@+,+K.J.I.C.m.D.B.Y.z.'+(.F ` ).t H | I ~ ! e A ",
"a : = @ 9 3 A )+!+~+Z.Z.*+~+{+;+]+@+X.,+l.C.K.z.A.A.K.^+].>./+` (+~.^ 7 j ! ' ! ",
"c # 4 * ] * i s._+*+Z.=+*+:+<+[+>+}+|+1+[.2+,+X.X.X.|+o.3+|.>.` R 4+5+1.4 e ' 1 ",
"' 1 ' # = ; > 6+7+8+9+`.*+:+0+[+>+}+a+7.p.b+c+@+}+]+++d+e+9.f+g+G F h+k @ * e ~ ",
"1 ! > - f , l i+j+k+l+R.*+:+0+[+m+c+k.p.*.7.c+}+]+>+m+U.T.l+n+g+o+o+h+k 1 : A # ",
") ~ c < 9 @ p+q+r+i.9.S.=+~+~+[+s+y.p.p.*.[.t+]+>+;+[+8+=+u+n+g+o+u z ~ : ; ] _ ",
"! ' ) # ; k v+r+C.w+0.0.h. +-+-+x+d.p.p.p.6.'+m+;+{+<+ +Z.9+n+g+y+y p ' 1 ; * ^ ",
"  ! >   ; U z+A+^+w+3+0.k+8+-+.+B+C+d.e.6.[.j+;+{+<+0+*+ +9+f+y+y k ~ 1 , 6 ; { ",
"# ( > 1 7 ! )+D+x+w+; w+E+F+.+m+B+C+G+b+H+I+s+[+<+0+:+~+*+`.J+K+l i ]   c = : [ ",
"> : _ , $ : g L+M+w.x.x.I+x+N+N+I+O+O+O+b+B+.+{+<+{+{+~+*+l+J+K+l + = { 9 , h f ",
"^ 6 a g * 3 : @ P+Q+R+R+S+C+2+b+O+[.T+T+k.N+.+{+{+m+m+.+8+S.U+K+l % - { a | } # ",
", + 5 [ + ] ( @ = L+z+V+W+X+2+H+O+T+T+T+O+Y+s+.+m+F+F+F+B+Z+>.K+p = c - : _ @ # ",
"  - < 4 * = > ( = 1.1.1.; P+`+k.G+T+[.O+O+G+l.'+^+a+t+t+x+3+3. @p # * A   > @ * ",
"1 h _ + b : 4 = # 1 @ @ > )+.@2+k.6.T+O+O+k.Y+S+S++@I.'+x+@@ @5+' & > # # * + ) ",
"b f + 8 - # = @ > @ @ @ 4 #@`+l.l.Y+2+H+H+`+t.z+t.$@j+%@X+z+)+@ @ : . ; # # c b ",
"c - < - @ * 4 1 ' A > $ 1.&@R++@I.^+Y+k.b+t.1.0 1.W+*@P+s.4 + = = # - d } @ < _ ",
": b [ > ~ ] 1 * # , 7 k &@2.H.j+H.w+2+b+.@=@> [ d | 1.1.I < - = 1 ( = } d } ! ; ",
". 7 + ] , 8 8 A ( = c )+-@0.;@;@Z+0.8.y.>@)+4 > ; f | ! : 5 , [ i 4 * @ 5 | $ U ",
"h { ^ 0 < 6 9 = 1 4 * s.D+E+I+,@T.e+h.G.b.V+= U ^ * , j ) h . 5 = % | - # 5 e A ",
"& $ b ; > ' 2 . . g ^ k '@'+I.I+d+x+x+h.@@W+@ 1 , 2   e 7 5 # @ @ $ 2 / / ' ' 8 ",
"# * ( # 1 # > 1 $ - 7 k )@!@I.I+x+!@a+V.'@s.> & @ ] j A # # 9 $ } 7 > 1 8 . ! : ",
"9 k =@=@k @ * 6 : : 1.L+~@1++@I.1+!@a+M+L+7 ; $ 6 % ~ ] > A ( U 8 4 # * * ) A 4 ",
"5 *@{@>@&+%+6+V+V+6+]@~@!@I.1+I+I.!@%@*@1.- h ; % { @ > ] 9 : U   # 1 > 4 * 4 = ",
"+ 6+^@Z+Z+F.F.A+A+%@a+^+'+'+a+^+I.1+%@*@= > 8 2 ' @ 5 6 ] * ! A @ ( > ' - # > } ",
"  i P+'@'@/@^@@@H.,@E+x+^+I+x.H.!@I.'+Q+=@_ $ j 1 { , > # # * $ + # : , f - > 8 ",
"e ( 8 1.k s.#@6+]@(@^@F.;@0.A ^.,@1+I.I+X+V+| & = ' @ ^ U 4 1 = 7 c 7 > 5 | i A ",
"! } a @ 4 < | b + s.#@%+'@{@}.}.G.,@w.w.I+$@W+)+# @ c d ) = $ 4 > { = 4 > 7 i > ",
"  . + @ # # $ % & * = 1.k P+(@_@_@-@{@:@,@,@:@_@&@&@&@l # ( )   # ~ > _ : ] ] < ",
"- [ # } ~ # ] ] ] ] ( @ - 1.k l p s.=@W+]@-@@@3+].j.j.h+s.4 3 5 6 7 8 _ : 9 . 0 ",
", a b c # @ # ] > 4 2 ' ; d 4 e # = & 1 k )+L+z+(@{@{@_@=@% 2 < 8   ^ f ' 0 g # ",
"b a 0 1 @ = ) h [ 1 b f 1 h { = ^ / 8 ] # ] 1 1.s.L+P+)+i & f 2 ~ 4 ) e : 7 # 3 ",
"b = ' @ @ @ > , h 8 j h : ' ] , d f = ( 1 2 - ( 1 1 $ h b 1 7 ) a h g # e 1 ' 3 ",
"* @ # ( : 2 c } 9 3 j 0 f 4 3 d 8 # > * = 6 . > ] 7 : 0 / +   ' / | = @ ( ' i @ "};
