/* XPM */
static char * enemy_walk_xpm[] = {
"50 46 88 1",
" 	c #6FAB44",
".	c #5F983C",
"+	c #659F3F",
"@	c #588D37",
"#	c #70A844",
"$	c #81BA4C",
"%	c #619A3D",
"&	c #6FAD45",
"*	c #5D953B",
"=	c #7BB54A",
"-	c #96D057",
";	c #8BC752",
">	c #76B849",
",	c #7EBB4C",
"'	c #66A240",
")	c #9CD65A",
"!	c #8FCA54",
"~	c #68A442",
"{	c #639D3E",
"]	c #85C24F",
"^	c #7EB74B",
"/	c #6DA843",
"(	c #82C04E",
"_	c #78B549",
":	c #6DA542",
"<	c #8BC451",
"[	c #5B9139",
"}	c #74B448",
"|	c #75B147",
"1	c #83BD4D",
"2	c #79B248",
"3	c #689F3F",
"4	c #8DC953",
"5	c #74AD46",
"6	c #91CC55",
"7	c #99D358",
"8	c #649A3D",
"9	c #6AA542",
"0	c #94CE56",
"a	c #6CAB44",
"b	c #6BA241",
"c	c #70AF46",
"d	c #88C551",
"e	c #76AF47",
"f	c #6AA843",
"g	c #72B147",
"h	c #7EBD4C",
"i	c #88C250",
"j	c #73AF46",
"k	c #86BF4F",
"l	c #D0D1CE",
"m	c #C5C6C4",
"n	c #DADBD8",
"o	c #72AA45",
"p	c #7AB94A",
"q	c #7D7F7A",
"r	c #3D423A",
"s	c #383D36",
"t	c #4E4F4B",
"u	c #585A54",
"v	c #767975",
"w	c #BBBCB9",
"x	c #E6E6E4",
"y	c #41463E",
"z	c #20261E",
"A	c #272C24",
"B	c #474B45",
"C	c #70726E",
"D	c #858783",
"E	c #333832",
"F	c #8B8E89",
"G	c #A1A4A0",
"H	c #262627",
"I	c #F0F2EE",
"J	c #2E3229",
"K	c #52544F",
"L	c #5D5F5A",
"M	c #AEB0AC",
"N	c #63645F",
"O	c #696B66",
"P	c #B6B7B3",
"Q	c #949690",
"R	c #F5F7F4",
"S	c #9D9E9C",
"T	c #A8A8A0",
"U	c #0F130D",
"V	c #FBFDF9",
"W	c #FAFBF8",
" .+@#$%&@@@*=-;>-,&'=)!%~{]^~{{/-${(_:-<[}{&|.*[ .",
"[+%@%.@[~,]123|>4!+|);[*.%56*'(,4789&70%@~&a@[~@[+",
":.[9b8[{c,d60]&{e!f04'g^$=9!^4hg,)2';73.**~@/>~9:.",
"i:@&be@@@[#.+g>>j(g;%/46ij{}_=]h+0=c-|@*hf*/db*{i:",
"/k@'b35@*$=@[+f>}}}&a>|%'+lmmmlln_,}(9**!c+]#@[@/k",
"*={@[ko@2=*=-6p>}{cag<p.''qrsrtuvwn}&}dxwnge~p>:*=",
"$1:{.2*8=3;719{%/~f%i4++,$lyzzAyrBCwnxmDEF}'>/. $1",
"/07o{./+8,(3*%%> |%e0'=<mwGszHEsByytvFyEED/i--p[/0",
"@{;73~{b04*8#52%@p',207IFrEAzJrEyysEEsHBKD,(2of[@{",
"@@.6k~.-<.fd00-(~fcc(09IGsArEErsJEJHHEsLLD.@@.38@@",
"k|'#i%!<'@@@.{+c>gagdwMGtzzErBBrEEsAEBLvNOn{&p1ik|",
"88{~f_i[~.'''[lwwwPwnFsJzzzAAsyByrEEstLuLBDn/%@@88",
"~'@:/a[&|{~a+lOryyryFQyAJAJJzAEryEJssryrtNKCn./a~'",
"/@%^*%++1iaRlOryyBBysEErrsrsJzzAJAJrytysuCBESi;f/@",
",#&b%+%+%k]lOryyyytByysrKuuusAAzzAJruLtrruLyS-'.,#",
"11 2|=;1'[6FEsErKBLLuyrLQTTQLsAAzzJBLKysEsNODn1-11",
"@|nm*{b16_mOEJrKLLqSSOOSPPPwDyzAEryuuyrEtONCCDn:@|",
"*+wNmb^%:<DEJJruOQSFGQQwqOqGCyJAyuLNNKBsNSqNquvn*+",
"+*PsLm,%@mOBsEyuDGNEuCFPtrtLBrrJErsyKLuKKOvLOLrT+*",
"{fPBBNSmmOtvtJrLOOBAsBDMBsyryBBrEAzzJsryBKKuOuOm{f",
"b_MuvusLOsOvrJsrrysAJECDyEryyBBrJzzyqqqqDNBttOb7b_",
"2ilqCqNBrKvLAJsssyJAzzyEssryBrEEJzrG6+''&mFFDm:12i",
"|<[lqvFvNvvyzErrrrAUzNrJErByEzzJEBG7#+&&f,b'#e1e|<",
"15[@lDuKuLvuzrBrsJUUOlSyJsrEUUABFM:i{[f}&{b.e=8;15",
"k%_[@lDqDDmwrtLryuJLl0nBArszUzzK+++f^+*f{=5b 8@ek%",
"8 |'*[~*{(c,CKvOqCDn60nrsvyUzuUto@.1^~a'91%,k1 *8 ",
"@9~*9*,#=/,<CKFSDql42_nyCwqACFEQ!^+d:p8% 3=-!j+[@9",
"@*@@~e5:<.|,CKQMNTV<%5ntGlMtPGtn3}c'&/d^ :02[{{*@*",
"@%e:[=8ok8'~qLTmOM02%^ntLvOtMDSIf@{9~+%1^,#@[[[%@%",
"[[/k29^i+.%*DNPlvP08[ontJBytQCx9{.[[~*[.g9*@.fja[[",
"9@%*|{-#8$,+qLPlvP=>}{nKrKtBqOxR2,.'@&j*[[.8_[[+9@",
"/8+ {$!8;^[%DLGmGFQnp6nLEEEEBBqG03@{@@,6b[[1$@@[/8",
"o3@111^i^@.+mvQmPQDDlWITBKCDDCyvS'+8%%[^)2@i#8^|o3",
"ob*8-,$k*f'{.mDvFDQuw@*ITCSQPCuQChi^%{~%2)2cbk:8ob",
"-;#@k6(8'=;;g~%1]f*3g+..a[f+*b!0c,o=ka+.@o0/p981-;",
".5efb- e4i53%{+.;o5,%[*.{.}%pe.=>_-6o%d0^[o}g4e[.5",
"[@@@.j/$b*&]66<e&pg.24-0,.&@{=]9}(o[@@/]77&&;6.#[@",
":@3[@[.~[{[*{/^(g& 46i2e5f**j@'>g[[3/2(*{;6c,.@2:@",
"eoi*.3.+'[@.5,,&c&_|..&'@+(b/5df'*g~p;+[.._g+@@+eo",
"j;#2bo:[{{%,,5b9&f'+*+*a&{^-bd @*'3,p9[{*+.+%{+[j;",
"($j3@8|[12%%:*/}{@,/'p~+*%*;]&@o5'.cg@~*&^[*2!j[($",
"1/['%9a^k[@[,k85%/6#i5[fa%#/>{ =*[[./8[,=!^*;=='1/",
"{:b~9}~;.b$3.(,^ p<g*_|{(:-0j%&@ep+{%(1(*o0ag+[*{:",
"@ke%cc2:@+i0$8p,#'8/53d&p@*<<[@1)_%/+* %+*(a*{+'@k",
"/;:%.968@[[/dj.%[^b*=&=_ccf  'e7e[~_9[f*#,''i(.p/;",
"},*ie^k[2f[''''~@^0@*%{'%9%e,*]|{{+|o5(;#,36488#},"};
