/* XPM */
static char * enemy_walk_1_xpm[] = {
"50 46 87 1",
" 	c #6FAB44",
".	c #5F983C",
"+	c #659F3F",
"@	c #588D37",
"#	c #70A844",
"$	c #81BA4C",
"%	c #619A3D",
"&	c #6FAD45",
"*	c #5D953B",
"=	c #7BB54A",
"-	c #96D057",
";	c #8BC752",
">	c #76B849",
",	c #7EBB4C",
"'	c #66A240",
")	c #9CD65A",
"!	c #8FCA54",
"~	c #68A442",
"{	c #639D3E",
"]	c #85C24F",
"^	c #7EB74B",
"/	c #6DA843",
"(	c #82C04E",
"_	c #78B549",
":	c #6DA542",
"<	c #8BC451",
"[	c #5B9139",
"}	c #74B448",
"|	c #75B147",
"1	c #83BD4D",
"2	c #79B248",
"3	c #689F3F",
"4	c #8DC953",
"5	c #74AD46",
"6	c #91CC55",
"7	c #99D358",
"8	c #649A3D",
"9	c #6AA542",
"0	c #94CE56",
"a	c #6CAB44",
"b	c #6BA241",
"c	c #70AF46",
"d	c #88C551",
"e	c #76AF47",
"f	c #6AA843",
"g	c #72B147",
"h	c #7EBD4C",
"i	c #88C250",
"j	c #73AF46",
"k	c #86BF4F",
"l	c #BEC1BD",
"m	c #B6B9B4",
"n	c #D5D8D4",
"o	c #72AA45",
"p	c #7AB94A",
"q	c #8E918C",
"r	c #3B4139",
"s	c #32372F",
"t	c #373C34",
"u	c #50544D",
"v	c #666964",
"w	c #A5A6A5",
"x	c #C9CCC8",
"y	c #4A4D47",
"z	c #1E231B",
"A	c #252A22",
"B	c #3F443D",
"C	c #5C605A",
"D	c #ADAFA9",
"E	c #7D807B",
"F	c #2D3129",
"G	c #444942",
"H	c #60645E",
"I	c #757873",
"J	c #9B9E99",
"K	c #858984",
"L	c #6D716B",
"M	c #565953",
"N	c #E0E1DF",
"O	c #E9EBE8",
"P	c #F2F4F1",
"Q	c #F7F8F6",
"R	c #131712",
"S	c #000000",
"T	c #FCFDFA",
"U	c #F8FCF7",
"V	c #262628",
" .+@#$%&@@@*=-;>-,&'=)!%~{]^~{{/-${(_:-<[}{&|.*[ .",
"[+%@%.@[~,]123|>4!+|);[*.%56*'(,4789&70%@~&a@[~@[+",
":.[9b8[{c,d60]&{e!f04'g^$=9!^4hg,)2';73.**~@/>~9:.",
"i:@&be@@@[#.+g>>j(g;%/46ij{}_=]h+0=c-|@*hf*/db*{i:",
"/k@'b35@*$=@[+f>}}}&a>|%'+lmmmlln_,}(9**!c+]#@[@/k",
"*={@[ko@2=*=-6p>}{cag<p.''qrstruvwx}&}d^6:ge~p>:*=",
"$1:{.2*8=3;719{%/~f%i4++,$nyzzArBBCwlnDEFE}'>/. $1",
"/07o{./+8,(3*%%> |%e0'=<14qrzAFrGBBGHIsttI/i--p[/0",
"@{;73~{b04*8#52%@p',207;JtAFAFssrrssFtFBCE,(2of[@{",
"@@.6k~.-<.fd00-(~fcc(09@JtArttrrttFzzsGHHE.@@.38@@",
"k|'#i%!<'@@@.{+c>gagdDqKBzAssGyBsttFFGvILMm{&p1ik|",
"88{~f_i[~.'''[lqqKqJxwyAzzAAAtGBBBstByMuMGLm/%@@88",
"~'@:/a[&|{~a+mMrBsrrHIyssFssAzFtBFAtrrrryvuMm./a~'",
"/@%^*%++1iaflHrGGBGGttrrBBBBszAAFAFtyMyByHMsqi;f/@",
",#&b%+%+%k]lurGBBBuuyGBBHILLGsAzzzsGCHytryvMq-'.,#",
"11NDO=;1'[6qFstBMuCLLuGLwmmDIGAzzAFyHuBssrCILD1-11",
"@|xuKOb16PDMFsrMHLqwDKEDwJDmqyAABuyMCGrsMqLvELDQ@|",
"*+xBGqN%:mGFFFryvJqvKqqmLuHKvBFFtuMCMCuGMEKvLCym*+",
"+*xuHuCqDMtMGArMEqHFBuKmMsBuBBrtsFsstMMuuCHMvHBJ+*",
"{fxHEvtGuBCEyAryMuBFsrEDusrBrGyGtzzzzFtGyyuMHMK${f",
"b_1DLEEvBCKLsAsrrBBFAsCussrBGyGrFzRzSRyJmqyyyKN7b_",
"2i=^DLEELIKuAstrrrsAzsBsFFsBGtAAsFuLAsMyKxxxxNT12i",
"|<[@=DHCCCCBFrBrBtzRtwxxxmMRRRRRtMwlDErLLqb'#e1e|<",
"15[@[cNnnnxECKHrrFRRqP70=5xGAAzzCLEJlqsyuLb.e=8;15",
"k%_[@9c*9UDHqmKyBFzsmU55;!i}+,DuyyyCvBGBzMlN 8@ek%",
"8 |'*[~*{OKMDxJLGryJ60-6b:!5j:$<o@.DGtBGtGyEN1 *8 ",
"@9~*9*,#=DHqlDLHHwNP2_idp.o,f.2^!^+d:wyFMwwIqj+[@9",
"@*@@~e5:OqImlLq*.oi<%53.[@@~*[:,3}c'&/muMLIHJ{{*@*",
"@%e:[=8NqImmvzq:;102%^b* @b3@,[3f@{9~+%1^CMq[[[%@%",
"[[/k29^DCwnqzVD53b08[o!|9503.039{.[[~*[.g9*@.fja[[",
"9@%*|{-DMJxKRI{@@*=>}{bp+0o*'d9%2,.'@&j*[[.8_[[+9@",
"/8+ {$!DHwlwGK@@@+[.p6${fe@.{9.#03@{@@,6b[[1$@@[/8",
"o3@111^DLxmDLKg*/{%*[bd1a%.,42*]='+8%%[^)2@i#8^|o3",
"ob*8-,$xDNlmDm=('g.'[@*>a.{*k)0h+hi^%{~%2)2cbk:8ob",
"-;#@k6(8'=;;g~%1]f*3g+..a[f+*b!0c,o=ka+.@o0/p981-;",
".5efb- e4i53%{+.;o5,%[*.{.}%pe.=>_-6o%d0^[o}g4e[.5",
"[@@@.j/$b*&]66<e&pg.24-0,.&@{=]9}(o[@@/]77&&;6.#[@",
":@3[@[.~[{[*{/^(g& 46i2e5f**j@'>g[[3/2(*{;6c,.@2:@",
"eoi*.3.+'[@.5,,&c&_|..&'@+(b/5df'*g~p;+[.._g+@@+eo",
"j;#2bo:[{{%,,5b9&f'+*+*a&{^-bd @*'3,p9[{*+.+%{+[j;",
"($j3@8|[12%%:*/}{@,/'p~+*%*;]&@o5'.cg@~*&^[*2!j[($",
"1/['%9a^k[@[,k85%/6#i5[fa%#/>{ =*[[./8[,=!^*;=='1/",
"{:b~9}~;.b$3.(,^ p<g*_|{(:-0j%&@ep+{%(1(*o0ag+[*{:",
"@ke%cc2:@+i0$8p,#'8/53d&p@*<<[@1)_%/+* %+*(a*{+'@k",
"/;:%.968@[[/dj.%[^b*=&=_ccf  'e7e[~_9[f*#,''i(.p/;",
"},*ie^k[2f[''''~@^0@*%{'%9%e,*]|{{+|o5(;#,36488#},"};
