/* XPM */
static char * enemy_walk_4_xpm[] = {
"50 46 102 2",
"  	c #6FAB44",
". 	c #5F983C",
"+ 	c #659F3F",
"@ 	c #588D37",
"# 	c #70A844",
"$ 	c #81BA4C",
"% 	c #619A3D",
"& 	c #6FAD45",
"* 	c #5D953B",
"= 	c #7BB54A",
"- 	c #96D057",
"; 	c #8BC752",
"> 	c #76B849",
", 	c #7EBB4C",
"' 	c #66A240",
") 	c #9CD65A",
"! 	c #8FCA54",
"~ 	c #68A442",
"{ 	c #639D3E",
"] 	c #85C24F",
"^ 	c #7EB74B",
"/ 	c #6DA843",
"( 	c #82C04E",
"_ 	c #78B549",
": 	c #6DA542",
"< 	c #8BC451",
"[ 	c #5B9139",
"} 	c #74B448",
"| 	c #75B147",
"1 	c #83BD4D",
"2 	c #79B248",
"3 	c #689F3F",
"4 	c #8DC953",
"5 	c #74AD46",
"6 	c #91CC55",
"7 	c #99D358",
"8 	c #649A3D",
"9 	c #6AA542",
"0 	c #94CE56",
"a 	c #6CAB44",
"b 	c #6BA241",
"c 	c #70AF46",
"d 	c #88C551",
"e 	c #76AF47",
"f 	c #6AA843",
"g 	c #72B147",
"h 	c #7EBD4C",
"i 	c #88C250",
"j 	c #73AF46",
"k 	c #86BF4F",
"l 	c #72AA45",
"m 	c #7AB94A",
"n 	c #DFE0DD",
"o 	c #A3A5A0",
"p 	c #9E9E9C",
"q 	c #A6A6A7",
"r 	c #AFB1AB",
"s 	c #D1D2CE",
"t 	c #D7D9D5",
"u 	c #6F716D",
"v 	c #2F342D",
"w 	c #262627",
"x 	c #454643",
"y 	c #757771",
"z 	c #BCBEB9",
"A 	c #FDFDFA",
"B 	c #21271D",
"C 	c #494D46",
"D 	c #B6B7B4",
"E 	c #878984",
"F 	c #363934",
"G 	c #999C96",
"H 	c #8E918B",
"I 	c #62655E",
"J 	c #272D26",
"K 	c #33392E",
"L 	c #3D413A",
"M 	c #4F514D",
"N 	c #40443B",
"O 	c #7F837C",
"P 	c #2E3127",
"Q 	c #5E5F60",
"R 	c #686B64",
"S 	c #42483D",
"T 	c #383F34",
"U 	c #54574F",
"V 	c #787B75",
"W 	c #ACADA7",
"X 	c #5C5E58",
"Y 	c #959692",
"Z 	c #CBCCC7",
"` 	c #4F5448",
" .	c #444C41",
"..	c #585B52",
"+.	c #E6E7E5",
"@.	c #F4F5F2",
"#.	c #717364",
"$.	c #000000",
"%.	c #EEEEEA",
"&.	c #191C14",
"*.	c #C3C4BF",
"=.	c #F8F9F5",
"  . + @ # $ % & @ @ @ * = - ; > - , & ' = ) ! % ~ { ] ^ ~ { { / - $ { ( _ : - < [ } { & | . * [   . ",
"[ + % @ % . @ [ ~ , ] 1 2 3 | > 4 ! + | ) ; [ * . % 5 6 * ' ( , 4 7 8 9 & 7 0 % @ ~ & a @ [ ~ @ [ + ",
": . [ 9 b 8 [ { c , d 6 0 ] & { e ! f 0 4 ' g ^ $ = 9 ! ^ 4 h g , ) 2 ' ; 7 3 . * * ~ @ / > ~ 9 : . ",
"i : @ & b e @ @ @ [ # . + g > > j ( g ; % / 4 6 i j { } _ = ] h + 0 = c - | @ * h f * / d b * { i : ",
"/ k @ ' b 3 5 @ * $ = @ [ + f > } } } & a > | % ' + * c _ | ; 9 ~ _ , } ( 9 * * ! c + ] # @ [ @ / k ",
"* = { @ [ k l @ 2 = * = - 6 m > } { c a g < m . ' ' ' } ) ( ~ ' i - < } & } d ^ 6 : g e ~ m > : * = ",
"$ 1 : { . 2 * 8 = 3 ; 7 1 9 { % / ~ f % i 4 + + , $ / [ $ - * ; ) e % g [ @ + ] ] + } ' > / .   $ 1 ",
"/ 0 7 l { . / + 8 , ( 3 * % % >   | % e 0 ' = < 1 4 7 5 8 ! h 7 b 8 $ - 6 ' 5 j g [ / i - - m [ / 0 ",
"@ { ; 7 3 ~ { b 0 4 * 8 # 5 2 % @ m ' , 2 0 7 ; n o p p q r q s ^ 0 ! $ e c     + % , ( 2 l f [ @ { ",
"@ @ . 6 k ~ . - < . f d 0 0 - ( ~ f c c ( 0 9 @ t u v w v x x y o s [ ' ' [ z p t + . @ @ . 3 8 @ @ ",
"k | ' # i % ! < ' @ @ @ . { + c > g a g d & g ] A q w w B v C x x u p s D E C F D @ [ { & m 1 i k | ",
"8 8 { ~ f _ i [ ~ . ' ' ' [ b 9 * ' f g } g n G H I B J K F x x x x L u M w N L z { + d / % @ @ 8 8 ",
"~ ' @ : / a [ & | { ~ a + k ; 9 & [ @ [ @ 8 n O v J v J v F v L L v v P v v Q M D f   ! % . / a ~ ' ",
"/ @ % ^ * % + + 1 i a f 1 ( { @ [ % / 5 .   s R J J S T T L F v F P B J L U V C W + = ] @ i ; f / @ ",
", # & b % + % + % k ] g c f [   g . % t O u X J B J J T C S L F N T P F X I y C R t , m $ - ' . , # ",
"1 1   2 | = ; 1 ' [ 6 _ n H y V y y Y Z O J B B B J J B L S N N T K K L ` C ` C X V s h - 2 1 - 1 1 ",
"@ | 2 1 * { b 1 6 _ _ n V L L N F T C R X L F K F L v B J J T T J K L S N L  .I X T R t , 4 ! : @ | ",
"* + , 8 @ b ^ % : < } V x x x S S C N K L N N S S S L J B B J P P T S ` ..S N ` I ` S Z g ( * [ * + ",
"+.@.% ~ l : , % @ 3 E L L L x x C X `  .S N U V O V R N P B B B B K ` I U N T K ` #...z c   $ * + * ",
"C p % f / 1 [ + . ' X K P F M I U I O y ` ..H D z z o I v B B B P K ....S L K T N #.V y Z * 6 $ { f ",
"$.F W @.{ & { & %.V F J K  .I R O G r W O H r G G W r R v B P S ` ..R U S N K O H I y #.#.Z b 7 b _ ",
"w w C r @.{ c * t M F v T S ..E o I ` E E o o `  .I V  .T K B T ` ` U X ..C N X O O X #.S I : 1 2 i ",
"y v F ..o t %.t V C R T K  .R O O N J  .X o p T T  . .T S N K v P J P  .` C U ` I ..X R U X 1 e | < ",
"1 V ..X N C G u L u V T K S S S S T P K ` Y E K T T T S  . .S K B &.B v S C C M M M X ..Q *.8 ; 1 5 ",
"k G R O X C C T M O C B P T L S T v B B L X K B P K S  . .K B w J T C Y ^ + * s V M M Q z @.@ e k % ",
"8   Y R O E X C y V T B v T L L N B &.&.B J K P &.P  .C T B B J J E . 1 ^ ~ a ' 9 1 % , k 1   * 8   ",
"@ 9 ~ Y u u u u u I K B L S L T v &.$.B P C i d m K N C T B w F F Y + d : m 8 %   3 = - ! j + [ @ 9 ",
"@ * @ %.Y I I Q y z y J X M L S L &.B C v U 3 . [ v P C M C F M U Y c ' & / d ^   : 0 2 [ { { * @ * ",
"@ % e : [ = 8 l k 8 Z N I I ..u R w I H F M b *   R x S I E E L B u n 9 ~ + % 1 ^ , # @ [ [ [ % @ % ",
"[ [ / k 2 9 ^ i + . n x u H Y E U v E o X ..%.| 9 5 r U X r s V &.L G [ ~ * [ . g 9 * @ . f j a [ [ ",
"9 @ % * | { - # 8 $ n x u p o X W u R p o y z m + 0 l G C V G Q &.u y o @ & j * [ [ . 8 _ [ [ + 9 @ ",
"/ 8 +   { $ ! 8 ; ^ n M u W W X t D L Y Z Y I %.f e @ *.U B F L v V u p @ @ , 6 b [ [ 1 $ @ @ [ / 8 ",
"l 3 @ 1 1 1 ^ i ^ @ n ..O Z r R n *.F H s W u G *.% . @.D M F M C I M p % % [ ^ ) 2 @ i # 8 ^ | l 3 ",
"l b * 8 - , $ k * f n X O Z D R n n V V s s r y y D { * k *.X F x F v o % { ~ % 2 ) 2 c b k : 8 l b ",
"- ; # @ k 6 ( 8 ' = n I V D z E Y D s O E z z G u R f + * =.D U M R u H t a + . @ l 0 / m 9 8 1 - ; ",
". 5 e f b -   e 4 i %.p y W Z W E E o Z O u V x X R } % m e . Y O s Z o H s d 0 ^ [ l } g 4 e [ . 5 ",
"[ @ @ @ . j / $ b * & %.o O E E Y H Q n n p o G q r & @ { = ] Y X W W r u W / ] 7 7 & & ; 6 . # [ @ ",
": @ 3 [ @ [ . ~ [ { [ * { / ^ ( g &   4 6 i 2 e 5 f * * j @ ' > g [ [ 3 / 2 ( * { ; 6 c , . @ 2 : @ ",
"e l i * . 3 . + ' [ @ . 5 , , & c & _ | . . & ' @ + ( b / 5 d f ' * g ~ m ; + [ . . _ g + @ @ + e l ",
"j ; # 2 b l : [ { { % , , 5 b 9 & f ' + * + * a & { ^ - b d   @ * ' 3 , m 9 [ { * + . + % { + [ j ; ",
"( $ j 3 @ 8 | [ 1 2 % % : * / } { @ , / ' m ~ + * % * ; ] & @ l 5 ' . c g @ ~ * & ^ [ * 2 ! j [ ( $ ",
"1 / [ ' % 9 a ^ k [ @ [ , k 8 5 % / 6 # i 5 [ f a % # / > {   = * [ [ . / 8 [ , = ! ^ * ; = = ' 1 / ",
"{ : b ~ 9 } ~ ; . b $ 3 . ( , ^   m < g * _ | { ( : - 0 j % & @ e m + { % ( 1 ( * l 0 a g + [ * { : ",
"@ k e % c c 2 : @ + i 0 $ 8 m , # ' 8 / 5 3 d & m @ * < < [ @ 1 ) _ % / + *   % + * ( a * { + ' @ k ",
"/ ; : % . 9 6 8 @ [ [ / d j . % [ ^ b * = & = _ c c f     ' e 7 e [ ~ _ 9 [ f * # , ' ' i ( . m / ; ",
"} , * i e ^ k [ 2 f [ ' ' ' ' ~ @ ^ 0 @ * % { ' % 9 % e , * ] | { { + | l 5 ( ; # , 3 6 4 8 8 # } , "};
