/* XPM */
static char * enemy_walk_3_xpm[] = {
"50 46 92 2",
"  	c #6FAB44",
". 	c #5F983C",
"+ 	c #659F3F",
"@ 	c #588D37",
"# 	c #70A844",
"$ 	c #81BA4C",
"% 	c #619A3D",
"& 	c #6FAD45",
"* 	c #5D953B",
"= 	c #7BB54A",
"- 	c #96D057",
"; 	c #8BC752",
"> 	c #76B849",
", 	c #7EBB4C",
"' 	c #66A240",
") 	c #9CD65A",
"! 	c #8FCA54",
"~ 	c #68A442",
"{ 	c #639D3E",
"] 	c #85C24F",
"^ 	c #7EB74B",
"/ 	c #6DA843",
"( 	c #82C04E",
"_ 	c #78B549",
": 	c #6DA542",
"< 	c #8BC451",
"[ 	c #5B9139",
"} 	c #74B448",
"| 	c #75B147",
"1 	c #83BD4D",
"2 	c #79B248",
"3 	c #689F3F",
"4 	c #8DC953",
"5 	c #74AD46",
"6 	c #91CC55",
"7 	c #99D358",
"8 	c #649A3D",
"9 	c #6AA542",
"0 	c #94CE56",
"a 	c #6CAB44",
"b 	c #6BA241",
"c 	c #70AF46",
"d 	c #88C551",
"e 	c #76AF47",
"f 	c #6AA843",
"g 	c #72B147",
"h 	c #7EBD4C",
"i 	c #88C250",
"j 	c #73AF46",
"k 	c #86BF4F",
"l 	c #72AA45",
"m 	c #7AB94A",
"n 	c #D9DBD7",
"o 	c #A5A5A4",
"p 	c #9EA19B",
"q 	c #AFB1A9",
"r 	c #A8AAA7",
"s 	c #C8C9C5",
"t 	c #62675F",
"u 	c #292E24",
"v 	c #252726",
"w 	c #333831",
"x 	c #3E4239",
"y 	c #474A45",
"z 	c #7F827C",
"A 	c #B9BBB6",
"B 	c #EAEAE8",
"C 	c #F3F5F2",
"D 	c #979994",
"E 	c #21271B",
"F 	c #42453F",
"G 	c #454A41",
"H 	c #D2D4D0",
"I 	c #90928E",
"J 	c #393D36",
"K 	c #888A86",
"L 	c #5F625D",
"M 	c #70726E",
"N 	c #4D5149",
"O 	c #696B66",
"P 	c #2F332A",
"Q 	c #595C54",
"R 	c #777974",
"S 	c #535650",
"T 	c #DFE1DE",
"U 	c #545A49",
"V 	c #4B4B28",
"W 	c #010100",
"X 	c #151812",
"Y 	c #F8F9F7",
"Z 	c #FBFBFA",
"` 	c #FFFFFF",
"  . + @ # $ % & @ @ @ * = - ; > - , & ' = ) ! % ~ { ] ^ ~ { { / - $ { ( _ : - < [ } { & | . * [   . ",
"[ + % @ % . @ [ ~ , ] 1 2 3 | > 4 ! + | ) ; [ * . % 5 6 * ' ( , 4 7 8 9 & 7 0 % @ ~ & a @ [ ~ @ [ + ",
": . [ 9 b 8 [ { c , d 6 0 ] & { e ! f 0 4 ' g ^ $ = 9 ! ^ 4 h g , ) 2 ' ; 7 3 . * * ~ @ / > ~ 9 : . ",
"i : @ & b e @ @ @ [ # . + g > > j ( g ; % / 4 6 i j { } _ = ] h + 0 = c - | @ * h f * / d b * { i : ",
"/ k @ ' b 3 5 @ * $ = @ [ + f > } } } & a > | % ' + * c _ | ; 9 ~ _ , } ( 9 * * ! c + ] # @ [ @ / k ",
"* = { @ [ k l @ 2 = * = - 6 m > } { c a g < m . ' ' ' } ) ( ~ ' i - < } & } d ^ 6 : g e ~ m > : * = ",
"$ 1 : { . 2 * 8 = 3 ; 7 1 9 { % / ~ f % i 4 + + , $ / [ $ - * ; ) e % g [ @ + ] ] + } ' > / .   $ 1 ",
"/ 0 7 l { . / + 8 , ( 3 * % % >   | % e 0 ' = < 1 4 7 n o p p q q r n - 6 ' 5 j g [ / i - - m [ / 0 ",
"@ { ; 7 3 ~ { b 0 4 * 8 # 5 2 % @ m ' , 2 0 7 ; / * 1 s t u v w x y z r n c     + A o B 2 l f [ @ { ",
"@ @ . 6 k ~ . - < . f d 0 0 - ( ~ f c c ( 0 9 @ * { * C D u E E w y F G z o H A I y J s @ . 3 8 @ @ ",
"k | ' # i % ! < ' @ @ @ . { + c > g a g d & g ] ] H I K L E v w w x F F F F M N u y y s & m 1 i k | ",
"8 8 { ~ f _ i [ ~ . ' ' ' [ b 9 * ' f g } g k $ # H O v w P v J J w F x w P P w P O L s / % @ @ 8 8 ",
"~ ' @ : / a [ & | { ~ a + k ; 9 & [ @ [ @ 8 [ : . s L v w F J F F w P J u E u J Q R Q s % . / a ~ ' ",
"/ @ % ^ * % + + 1 i a f 1 ( { @ [ % / 5 .   { I z t v v u w x y G F w J P v J Q O z S R n C ; f / @ ",
", # & b % + % + % k ] g c f [ n z M R R M D H z v E E E u u v J F G F w w w x N N S y Q z n ' . , # ",
"1 1   2 | = ; 1 ' [ 6 _ ~ : ( z x w w J J y R t w w w P w w E u P w J u P J x x x x L L y R T - 1 1 ",
"@ | 2 1 * { b 1 6 _ _ 1 f ( R y y y G x y F J J J x F G F J P E E E u u P x U Q F x Q t y F H : @ | ",
"* + , 8 @ b ^ % : < } _ g M J x F F G y t N G F x U R R R t x u E E E u J N Q U G x J Q t N s [ * + ",
"+ * I N r : , % @ 3 | n O u w w x S L S O z M y Q I A A A p L P E E E E V Q U x x w w x O R z H + * ",
"{ f O W P N [ + . ' R F X P w w G O t z o q r z I r D D q q t P E P N U U t N x x w z K L R M R { f ",
"b _ R v J F y y y F F y y J v w G t z D t t I K p D y N O R G w u P G N N U Q Q N F O K R Q M F t T ",
"2 i n R R D L x F N I p I w X J y O K z J P F t o I P w G G x F x w P u u u x N S S S O Q Q O N L n ",
"| < [ T K Q z D I p p S N J w F F N N y w P w S D z P w x x x G x w P E X E u F S S Q y N Q S L | < ",
"1 5 [ @ B s R F u v P w J F F J P w w P P E E x L w E u J F N y P E u E u X X D T n s L x F S s 1 5 ",
"k % _ [ @ 9 T s L X J S Q G P u X X X W X G G S S J w v w G y w u E u x K t J D B = 5 n H H n C k % ",
"8   | ' * [ ~ * H Q v M o O X W W X X P Q 0 - 6 b : r y P F y J E E J M q A q L A 1 % , k 1   * 8   ",
"@ 9 ~ * 9 * , # = / N M s q v W w P x A T _ i d m . l D u w S N y J F Q K s q R s 3 = - ! j + [ @ 9 ",
"@ * @ @ ~ e 5 : < . Q R s q P F p I I < % 5 3 . [ @ @ A L y y O D K w Q q s R q Y : 0 2 [ { { * @ * ",
"@ % e : [ = 8 l k 8 Q R A K x D I R 0 2 % ^ b *   @ b 3 @ r y Q q s t E t I M s ^ , # @ [ [ [ % @ % ",
"[ [ / k 2 9 ^ Z s o L I s D F I z I 0 8 [ l ! | 9 5 0 3 . C K y K p S X F O A . g 9 * @ . f j a [ [ ",
"9 @ % * | { - C L J K s H A x L D * = > } { b m + 0 l * ' d A y u w J P D & j * [ [ . 8 _ [ [ + 9 @ ",
"/ 8 +   { $ ! Y I S q T s I M I @ + [ . m 6 $ { f e @ . { 9 . A y w S N z @ , 6 b [ [ 1 $ @ @ [ / 8 ",
"l 3 @ 1 1 1 ^ i B K R K z z g * / { % * [ b d 1 a % . , 4 2 * ] r S F F J z n ^ ) 2 @ i # 8 ^ | l 3 ",
"l b * 8 - , $ k Y B D R K [ = ( ' g . ' [ @ * > a . { * k ) 0 h + A N N M R D T ` ) 2 c b k : 8 l b ",
"- ; # @ k 6 ( 8 ' = ; ; g ~ % 1 ] f * 3 g + . . a [ f + * b ! 0 c , z z n s I D T l 0 / m 9 8 1 - ; ",
". 5 e f b -   e 4 i 5 3 % { + . ; l 5 , % [ * . { . } % m e . = > _ K S r o o M A [ l } g 4 e [ . 5 ",
"[ @ @ @ . j / $ b * & ] 6 6 < e & m g . 2 4 - 0 , . & @ { = ] 9 } ( A K A q A r H 7 & & ; 6 . # [ @ ",
": @ 3 [ @ [ . ~ [ { [ * { / ^ ( g &   4 6 i 2 e 5 f * * j @ ' > g [ [ 3 / 2 ( * { ; 6 c , . @ 2 : @ ",
"e l i * . 3 . + ' [ @ . 5 , , & c & _ | . . & ' @ + ( b / 5 d f ' * g ~ m ; + [ . . _ g + @ @ + e l ",
"j ; # 2 b l : [ { { % , , 5 b 9 & f ' + * + * a & { ^ - b d   @ * ' 3 , m 9 [ { * + . + % { + [ j ; ",
"( $ j 3 @ 8 | [ 1 2 % % : * / } { @ , / ' m ~ + * % * ; ] & @ l 5 ' . c g @ ~ * & ^ [ * 2 ! j [ ( $ ",
"1 / [ ' % 9 a ^ k [ @ [ , k 8 5 % / 6 # i 5 [ f a % # / > {   = * [ [ . / 8 [ , = ! ^ * ; = = ' 1 / ",
"{ : b ~ 9 } ~ ; . b $ 3 . ( , ^   m < g * _ | { ( : - 0 j % & @ e m + { % ( 1 ( * l 0 a g + [ * { : ",
"@ k e % c c 2 : @ + i 0 $ 8 m , # ' 8 / 5 3 d & m @ * < < [ @ 1 ) _ % / + *   % + * ( a * { + ' @ k ",
"/ ; : % . 9 6 8 @ [ [ / d j . % [ ^ b * = & = _ c c f     ' e 7 e [ ~ _ 9 [ f * # , ' ' i ( . m / ; ",
"} , * i e ^ k [ 2 f [ ' ' ' ' ~ @ ^ 0 @ * % { ' % 9 % e , * ] | { { + | l 5 ( ; # , 3 6 4 8 8 # } , "};
