/* XPM */
static char * enemy_walk_2_xpm[] = {
"50 46 95 2",
"  	c #6FAB44",
". 	c #5F983C",
"+ 	c #659F3F",
"@ 	c #588D37",
"# 	c #70A844",
"$ 	c #81BA4C",
"% 	c #619A3D",
"& 	c #6FAD45",
"* 	c #5D953B",
"= 	c #7BB54A",
"- 	c #96D057",
"; 	c #8BC752",
"> 	c #76B849",
", 	c #7EBB4C",
"' 	c #66A240",
") 	c #9CD65A",
"! 	c #8FCA54",
"~ 	c #68A442",
"{ 	c #639D3E",
"] 	c #85C24F",
"^ 	c #7EB74B",
"/ 	c #6DA843",
"( 	c #82C04E",
"_ 	c #78B549",
": 	c #6DA542",
"< 	c #8BC451",
"[ 	c #5B9139",
"} 	c #74B448",
"| 	c #75B147",
"1 	c #83BD4D",
"2 	c #79B248",
"3 	c #689F3F",
"4 	c #8DC953",
"5 	c #74AD46",
"6 	c #91CC55",
"7 	c #99D358",
"8 	c #649A3D",
"9 	c #6AA542",
"0 	c #94CE56",
"a 	c #6CAB44",
"b 	c #6BA241",
"c 	c #70AF46",
"d 	c #88C551",
"e 	c #76AF47",
"f 	c #6AA843",
"g 	c #72B147",
"h 	c #7EBD4C",
"i 	c #88C250",
"j 	c #73AF46",
"k 	c #86BF4F",
"l 	c #72AA45",
"m 	c #7AB94A",
"n 	c #D3D4D2",
"o 	c #AFAFA7",
"p 	c #B6B8B2",
"q 	c #BFC1BE",
"r 	c #565A52",
"s 	c #2D3029",
"t 	c #343A30",
"u 	c #43473F",
"v 	c #4C4F4A",
"w 	c #878A84",
"x 	c #E1E3E1",
"y 	c #E8E9E8",
"z 	c #F7F8F7",
"A 	c #979994",
"B 	c #242526",
"C 	c #1C201A",
"D 	c #23281F",
"E 	c #3A3F36",
"F 	c #3F433D",
"G 	c #50554D",
"H 	c #D9DBD8",
"I 	c #9DA099",
"J 	c #474C44",
"K 	c #CDCFCC",
"L 	c #666963",
"M 	c #272927",
"N 	c #363A35",
"O 	c #7F837D",
"P 	c #3C413A",
"Q 	c #C7C9C6",
"R 	c #31352E",
"S 	c #60635E",
"T 	c #6E706B",
"U 	c #8C9188",
"V 	c #72756F",
"W 	c #797B77",
"X 	c #A3A89D",
"Y 	c #5B5D58",
"Z 	c #111410",
"` 	c #A6A5A6",
" .	c #000000",
"..	c #FAFAF9",
"+.	c #EFEFEF",
"  . + @ # $ % & @ @ @ * = - ; > - , & ' = ) ! % ~ { ] ^ ~ { { / - $ { ( _ : - < [ } { & | . * [   . ",
"[ + % @ % . @ [ ~ , ] 1 2 3 | > 4 ! + | ) ; [ * . % 5 6 * ' ( , 4 7 8 9 & 7 0 % @ ~ & a @ [ ~ @ [ + ",
": . [ 9 b 8 [ { c , d 6 0 ] & { e ! f 0 4 ' g ^ $ = 9 ! ^ 4 h g , ) 2 ' ; 7 3 . * * ~ @ / > ~ 9 : . ",
"i : @ & b e @ @ @ [ # . + g > > j ( g ; % / 4 6 i j { } _ = ] h + 0 = c - | @ * h f * / d b * { i : ",
"/ k @ ' b 3 5 @ * $ = @ [ + f > } } } & a > | % ' + * c _ | ; 9 ~ _ , } ( 9 * * ! c + ] # @ [ @ / k ",
"* = { @ [ k l @ 2 = * = - 6 m > } { c a g < m . ' ' n o o o p p q - < } & } d ^ 6 : g e ~ m > : * = ",
"$ 1 : { . 2 * 8 = 3 ; 7 1 9 { % / ~ f % i 4 + + , $ q r s s t u v w p x [ @ + ] q p y ' > / .   $ 1 ",
"/ 0 7 l { . / + 8 , ( 3 * % % >   | % e 0 ' = < 1 4 z A B C D E F F G w p H q I J F K i - - m [ / 0 ",
"@ { ; 7 3 ~ { b 0 4 * 8 # 5 2 % @ m ' , 2 0 7 ; n I I L B M s N u F F F J O G s P P Q ( 2 l f [ @ { ",
"@ @ . 6 k ~ . - < . f d 0 0 - ( ~ f c c ( 0 9 @ Q L s s s s R t N F E N R N s M S v Q @ @ . 3 8 @ @ ",
"k | ' # i % ! < ' @ @ @ . { + c > g a g d & g ] Q S M N F N P F N t N s D s E G T v Q { & m 1 i k | ",
"8 8 { ~ f _ i [ ~ . ' ' ' [ b 9 * ' f g } H A U S M D s N F v u P E P s s E r L V v w x / % @ @ 8 8 ",
"~ ' @ : / a [ & | { ~ a + k x U W W W W X n W s B D C s s M P J u F N t P F G G G u r w x . / a ~ ' ",
"/ @ % ^ * % + + 1 i a f 1 x w P R N R R G O T N s R R N R D M N P R s t F F P u F r S J w x ; f / @ ",
", # & b % + % + % k ] g x O u u J u u u P P P u E P F N N s D D D M s N F G r F F r L u J n ' . , # ",
"1 1   2 | = ; 1 ' [ 6 H V P E F u P G S J u E F r V V T Y E s C C D s t G S r P E P G S Y n 1 - 1 1 ",
"@ A S q * { b 1 6 _ n L s N s F v r v L V L J r U p p p A r s C D D M t r G F E R t E V V w H : @ | ",
"* S Z P L q y y n W J C s s t J L L O I o I W U o X I o X S s D R J v r S J P P E O O S W T O H * + ",
"+ V B N F v v G v u F P t D E u S w X T L U U X U J G V V J t s s u G r Y Y r J u T U W S T F W + * ",
"{ K L V U G P F J A ` w R C E J T U O t R v L X w R P J J P u E t R D s t J G r r Y L r Y T G S { f ",
"b _ K W Y w A A I o L Y N R E u G G G t D t r A O R P F E u J u E s C C C D s u G r G v r r L q b _ ",
"2 i = H q T J R R F N E F u E R t R t s D D J L E t E E J J u u N D Z C Z  .D w p q Y u J Y q 1 2 i ",
"| < [ @ z n A M C Y Y G F R R Z Z Z Z C J J J J t N R t F E s M s R F O r s J G L p K Q K n 1 e | < ",
"1 5 [ @ ..H L M L A p o r C Z Z D Z C Y K H H H n n O C C Z Z Z D E w q q o G r U r Q . e = 8 ; 1 5 ",
"k % _ [ K T L w p K H Q O Z Z N F S Q g 6 0 5 5 ; ! i U P N N C N S V O o p J s r R q b   8 @ e k % ",
"8   | n Y S I Q K p o A N s Y Q x y ; _ 6 0 - 6 b : ! +.x x H w F F u J S J P v s C I K k 1   * 8   ",
"@ 9 y L M V I p A F v r S q x ! ; ; 4 4 2 _ i d m . l , f . 2 y H H H n O u F J P J r L p +.+ [ @ 9 ",
"@ * +.O G Y N G R v q x y % 3 * . l i < % 5 3 . [ @ @ ~ * [ : , 3 } c ' +.H W N N A p A Y n { * @ * ",
"@ % e x w r v G S Q ' ~ @ % . : ; 1 0 2 % ^ b *   @ b 3 @ , [ 3 f @ { 9 ~ + H V v L T L T H [ % @ % ",
"[ [ / k 2 9 ^ i + . % * ~ % { 5 3 b 0 8 [ l ! | 9 5 0 3 . 0 3 9 { . [ [ ~ * [ +.n W Y T K f j a [ [ ",
"9 @ % * | { - # 8 $ , + % [ { @ @ * = > } { b m + 0 l * ' d 9 % 2 , . ' @ & j * [ [ . 8 _ [ [ + 9 @ ",
"/ 8 +   { $ ! 8 ; ^ [ % @ * @ @ @ + [ . m 6 $ { f e @ . { 9 . # 0 3 @ { @ @ , 6 b [ [ 1 $ @ @ [ / 8 ",
"l 3 @ 1 1 1 ^ i ^ @ . + { & g * / { % * [ b d 1 a % . , 4 2 * ] = ' + 8 % % [ ^ ) 2 @ i # 8 ^ | l 3 ",
"l b * 8 - , $ k * f ' { . [ = ( ' g . ' [ @ * > a . { * k ) 0 h + h i ^ % { ~ % 2 ) 2 c b k : 8 l b ",
"- ; # @ k 6 ( 8 ' = ; ; g ~ % 1 ] f * 3 g + . . a [ f + * b ! 0 c , l = k a + . @ l 0 / m 9 8 1 - ; ",
". 5 e f b -   e 4 i 5 3 % { + . ; l 5 , % [ * . { . } % m e . = > _ - 6 l % d 0 ^ [ l } g 4 e [ . 5 ",
"[ @ @ @ . j / $ b * & ] 6 6 < e & m g . 2 4 - 0 , . & @ { = ] 9 } ( l [ @ @ / ] 7 7 & & ; 6 . # [ @ ",
": @ 3 [ @ [ . ~ [ { [ * { / ^ ( g &   4 6 i 2 e 5 f * * j @ ' > g [ [ 3 / 2 ( * { ; 6 c , . @ 2 : @ ",
"e l i * . 3 . + ' [ @ . 5 , , & c & _ | . . & ' @ + ( b / 5 d f ' * g ~ m ; + [ . . _ g + @ @ + e l ",
"j ; # 2 b l : [ { { % , , 5 b 9 & f ' + * + * a & { ^ - b d   @ * ' 3 , m 9 [ { * + . + % { + [ j ; ",
"( $ j 3 @ 8 | [ 1 2 % % : * / } { @ , / ' m ~ + * % * ; ] & @ l 5 ' . c g @ ~ * & ^ [ * 2 ! j [ ( $ ",
"1 / [ ' % 9 a ^ k [ @ [ , k 8 5 % / 6 # i 5 [ f a % # / > {   = * [ [ . / 8 [ , = ! ^ * ; = = ' 1 / ",
"{ : b ~ 9 } ~ ; . b $ 3 . ( , ^   m < g * _ | { ( : - 0 j % & @ e m + { % ( 1 ( * l 0 a g + [ * { : ",
"@ k e % c c 2 : @ + i 0 $ 8 m , # ' 8 / 5 3 d & m @ * < < [ @ 1 ) _ % / + *   % + * ( a * { + ' @ k ",
"/ ; : % . 9 6 8 @ [ [ / d j . % [ ^ b * = & = _ c c f     ' e 7 e [ ~ _ 9 [ f * # , ' ' i ( . m / ; ",
"} , * i e ^ k [ 2 f [ ' ' ' ' ~ @ ^ 0 @ * % { ' % 9 % e , * ] | { { + | l 5 ( ; # , 3 6 4 8 8 # } , "};
