/* XPM */
static char * player2_xpm[] = {
"44 61 284 2",
"  	c #689F3F",
". 	c #588D37",
"+ 	c #649A3D",
"@ 	c #75B147",
"# 	c #5B9139",
"$ 	c #83BD4D",
"% 	c #79B248",
"& 	c #619A3D",
"* 	c #6DA542",
"= 	c #5D953B",
"- 	c #6DA843",
"; 	c #74B448",
"> 	c #639D3E",
", 	c #7EBB4C",
"' 	c #66A240",
") 	c #7AB94A",
"! 	c #68A442",
"~ 	c #659F3F",
"{ 	c #8BC752",
"] 	c #85C24F",
"^ 	c #6FAD45",
"/ 	c #72AA45",
"( 	c #74AD46",
"_ 	c #5F983C",
": 	c #70AF46",
"< 	c #72B147",
"[ 	c #7EB74B",
"} 	c #8FCA54",
"| 	c #73AF46",
"1 	c #6AA542",
"2 	c #6CAB44",
"3 	c #86BF4F",
"4 	c #91CC55",
"5 	c #70A844",
"6 	c #88C250",
"7 	c #6AA843",
"8 	c #76B849",
"9 	c #6FAB44",
"0 	c #7BB54A",
"a 	c #6BA241",
"b 	c #81BA4C",
"c 	c #82C04E",
"d 	c #8BC451",
"e 	c #78B549",
"f 	c #96D057",
"g 	c #94CE56",
"h 	c #76AF47",
"i 	c #08090A",
"j 	c #0F1113",
"k 	c #1E2023",
"l 	c #88C551",
"m 	c #9CD65A",
"n 	c #0E1012",
"o 	c #030406",
"p 	c #0F1011",
"q 	c #99D358",
"r 	c #060709",
"s 	c #040607",
"t 	c #030506",
"u 	c #8DC953",
"v 	c #202326",
"w 	c #010305",
"x 	c #1D1F21",
"y 	c #070A0C",
"z 	c #010304",
"A 	c #131516",
"B 	c #020406",
"C 	c #060708",
"D 	c #26292C",
"E 	c #35383B",
"F 	c #41464A",
"G 	c #050607",
"H 	c #080A0B",
"I 	c #1A1B1E",
"J 	c #282B2F",
"K 	c #4F4034",
"L 	c #816553",
"M 	c #5B4B3C",
"N 	c #1E2123",
"O 	c #2D3033",
"P 	c #3E4247",
"Q 	c #7EBD4C",
"R 	c #191919",
"S 	c #977D65",
"T 	c #EABB97",
"U 	c #A9896F",
"V 	c #1C1D1D",
"W 	c #121416",
"X 	c #484F54",
"Y 	c #B19173",
"Z 	c #BAC0BB",
"` 	c #C6DDDC",
" .	c #F1D0A3",
"..	c #D8C5A9",
"+.	c #98BFC7",
"@.	c #44575E",
"#.	c #010203",
"$.	c #0D0E10",
"%.	c #1E2022",
"&.	c #373B3F",
"*.	c #101215",
"=.	c #181B1E",
"-.	c #634F41",
";.	c #D3D7CB",
">.	c #CCE7E4",
",.	c #F8D6A8",
"'.	c #EFDAB7",
").	c #556E76",
"!.	c #0E1013",
"~.	c #1B1E21",
"{.	c #0B0C0E",
"].	c #050608",
"^.	c #6C5948",
"/.	c #FAD1A2",
"(.	c #FED4A3",
"_.	c #71624F",
":.	c #131212",
"<.	c #0E0F0F",
"[.	c #645645",
"}.	c #EEC399",
"|.	c #9F8C72",
"1.	c #1A1C1F",
"2.	c #0F1012",
"3.	c #212121",
"4.	c #E2B590",
"5.	c #F3CB9D",
"6.	c #EDC89C",
"7.	c #020304",
"8.	c #0A0C0D",
"9.	c #252525",
"0.	c #151617",
"a.	c #C19D7D",
"b.	c #3C362F",
"c.	c #25292B",
"d.	c #D0AE88",
"e.	c #2F3032",
"f.	c #090A0B",
"g.	c #29231C",
"h.	c #A99474",
"i.	c #B39775",
"j.	c #16181A",
"k.	c #1D2023",
"l.	c #2D3034",
"m.	c #121241",
"n.	c #282B2D",
"o.	c #929894",
"p.	c #7E7E7E",
"q.	c #171A1C",
"r.	c #2A2A2A",
"s.	c #464B4F",
"t.	c #404548",
"u.	c #393126",
"v.	c #DCC296",
"w.	c #C5B091",
"x.	c #748389",
"y.	c #191B1D",
"z.	c #786558",
"A.	c #C3A487",
"B.	c #2B231E",
"C.	c #E3C597",
"D.	c #CBB292",
"E.	c #312A21",
"F.	c #C7B087",
"G.	c #B5A286",
"H.	c #15171A",
"I.	c #101111",
"J.	c #090B0D",
"K.	c #38393A",
"L.	c #A4BCC8",
"M.	c #71797F",
"N.	c #010204",
"O.	c #141619",
"P.	c #050709",
"Q.	c #205869",
"R.	c #1D687D",
"S.	c #071B23",
"T.	c #3D798D",
"U.	c #64818B",
"V.	c #425056",
"W.	c #282928",
"X.	c #606E77",
"Y.	c #4AA9C7",
"Z.	c #37C5EB",
"`.	c #0E3441",
" +	c #0D2F3A",
".+	c #34BFE3",
"++	c #70DAFB",
"@+	c #B3E4F0",
"#+	c #8DA8B3",
"$+	c #76919C",
"%+	c #101213",
"&+	c #010102",
"*+	c #36C2EA",
"=+	c #55B8D7",
"-+	c #96BAC8",
";+	c #9AC2CD",
">+	c #9CCCDA",
",+	c #A1C8D9",
"'+	c #96B8C5",
")+	c #A3CDDA",
"!+	c #151719",
"~+	c #61727B",
"{+	c #0A2630",
"]+	c #2A95AD",
"^+	c #489AB2",
"/+	c #73919F",
"(+	c #ADDBEA",
"_+	c #B7EAFA",
":+	c #99BCC7",
"<+	c #94B5C1",
"[+	c #ACD8E4",
"}+	c #010509",
"|+	c #041116",
"1+	c #253035",
"2+	c #96BDCD",
"3+	c #191C1E",
"4+	c #8C7B66",
"5+	c #807057",
"6+	c #4F4739",
"7+	c #A1C8D4",
"8+	c #3D6B79",
"9+	c #21778C",
"0+	c #538596",
"a+	c #98BAC7",
"b+	c #99BBC7",
"c+	c #AFDDED",
"d+	c #688A98",
"e+	c #2D353A",
"f+	c #2FA3C0",
"g+	c #40D1FB",
"h+	c #ADDCEC",
"i+	c #849BA5",
"j+	c #8BA6B0",
"k+	c #A9D3E2",
"l+	c #61A4BA",
"m+	c #76D2ED",
"n+	c #94E0F8",
"o+	c #B2E4F3",
"p+	c #AAD7E5",
"q+	c #8FACB8",
"r+	c #997A63",
"s+	c #88959C",
"t+	c #ABD7EA",
"u+	c #BAECFC",
"v+	c #7ADFFE",
"w+	c #56D0F3",
"x+	c #86CEE5",
"y+	c #A5E5F9",
"z+	c #ADEAFF",
"A+	c #9FDBEC",
"B+	c #3C4F57",
"C+	c #184250",
"D+	c #42C0E3",
"E+	c #58B2CE",
"F+	c #91E2FD",
"G+	c #233840",
"H+	c #06080A",
"I+	c #1E4F5D",
"J+	c #2B6274",
"K+	c #ADDAE7",
"L+	c #30A8C8",
"M+	c #34373A",
"N+	c #78A4B2",
"O+	c #32B4D8",
"P+	c #3ACBF6",
"Q+	c #A3CCD8",
"R+	c #373F43",
"S+	c #9FC6D4",
"T+	c #5FC4E5",
"U+	c #ACD6E6",
"V+	c #37C2ED",
"W+	c #0C303D",
"X+	c #3FD3FF",
"Y+	c #4BCCF5",
"Z+	c #83CEE6",
"`+	c #15181A",
" @	c #7F949D",
".@	c #383B3F",
"+@	c #81C7DC",
"@@	c #424649",
"#@	c #34383B",
"$@	c #36393C",
"%@	c #5393A6",
"&@	c #5A8393",
"  . + @ # $ % & & * = - ; > . , - ' ) ! ~ = & = { ] ^ . / ( ' _ : < . ! = ^ [ # = % } | ",
"' & 1 2 [ 3 # . # , 3 + ( & - 4 5 6 ( # 7 2 & 5 - 8 > 9 0 = # # _ - + # , 0 } [ = { 0 0 ",
"! 1 ; ! { _ a b   _ c , [ 9 ) d < = e @ > c * f g | & ^ . h ) ~ > & c $ c = / g 2 < ~ # ",
"& : : % * . ~ 6 g b + ) , 5 ' i j k   l ^ ) . = d d # . $ m e & - ~ = 9 & ~ = c 2 = > ~ ",
"& _ 1 4 + . # # - l | _ & # [ n o p ^ 0 e : : 7 9 9 ' h q h # ! e 1 # 7 = 5 , ' ' 6 c _ ",
"6 h [ 3 # % 7 # ' ' ' p r o o s o t o o r & 1 & h , = ] @ > > ~ @ / ( c { 5 ,   4 u + + ",
"/ g 0 * b $ # . # ' k v o t w t t t w t r k x 9 # : ; : = ~ 7 l ] 6 { 1 h } ^ u d # ' 1 ",
". u b * u > . & e k y o z t t t t t t t o s A ' > ! : 1 ~ @ 2 | } ] 7 ~ e ; , c # @ c _ ",
". 5 b & ^ . . . = k B w t t t t t t t w w C D E F ! > > - f b > c e * f d # ; > ^ @ _ = ",
". & _ . # ! , ] $ k B t t t w t G G t w w t H I J = ' c , u q + 1 ^ q g & . ! ^ 2 . # ! ",
"1 a + # > : , l 4 k B t t w G K L L M G w C N O P [ u Q < , m % ' { q   _ = = ! . - 8 ! ",
"^ a h . . . # 5 _ k B t w H R S T T U V H H W P k e 0 ] Q ~ g 0 : f @ . = Q 7 = - l a = ",
"' a   ( . = b 0 . X B t w K Y Z `  ...+.@.#.$.%.&.e @ { 1 ! e , ; c 1 = = } : ~ ] 5 . # ",
". # 3 / . % F *.*.=.o w w -.T ;.>.,.'.>.).#.o !.v m c ! ' 6 f d ; ^ ; l [ 4 * < h ! ) 8 ",
"> _ % = + 0 ~.{.].].t w w ^. ./.,.(.(.,._.C j - X b f = { m h & < # . ~ ] ] ~ ; ' 8 - _ ",
"/ > _ - F W !.:.<.<.<.<.t [.}./.(.(.(.(.|.r J q ( + } Q q a + b f 4 r *.| < # - 6 f f ) ",
"q   ! > 1.2.H V V V 3.R G -.4.5.(.(./.5.6.- = $ { ' ; c / [ g } b h 7.8.9 ~ & , c % / 7 ",
"4 3 ! A B ].G H H <.3.9.0._.5.}.T T a._.b.t c.= 8 ' < 2 h d a # r 7.o z 7.A ~ _ . . _   ",
"5 6 & n 2.G w w w t V 3.R [.d.4.4.T U 9.<.C n e.x ~ ' & 2 3 } 6 f.2.].C 2.n . # > ^ ) $ ",
"! 7 e p ~.2.w t t t G C G <.g.h.,.(.i.<.t t o :.v : # & 7 [ ] u j.k.B 2.l.m.> ~ l - & . ",
"* - 2 # &.n.j t t t t t t w C _.h.h._.C w t w {.D E e.- ~ & . & ; ) t 3.|.o.p.9 } & _ - ",
"[ = & X k F q.C t t t t t t t V r.3.0.t t t t G H N s.h u - k t.p.p.7.u.v.w.x.0 ] . 6 { ",
"a & ~ & &.D j t t t t t t t t V r.3.0.t t t t t w N t.} @ 1 1.y.z.A.B.u.C.D.x., ) b f ' ",
"% @ 0 { 1.2.w w t t t t t t t V r.3.0.t t t t t w %.c.k k v W C ^.a.E.E.F.G.x.l Q f % $ ",
"$ = > a c.$.w t t t t t t t t V r.3.0.t t t t t w ].j i H.I.J.t :.g.H H g.K.L.{ Q , u } ",
"+ . M.A q.J.w w o r N.t t t t V r.3.0.t t t t t t w z f.W J.w w w #.w w #.8.r O.*.e.c = ",
"! / F %.G t t t P.x B w t t t V r.3.0.t t t t t t t t C C t t t w w w w w C ].C o H.9 b ",
"7 x n $.w w o y 1.x B w t t t V r.3.0.t w C !.r N.w t t w w z 8.Q.R.S.S.R.T.U.V.f.p = 4 ",
"@ k.o G t t o a = k r H t t C V W.3.0.t w ].=.e.o C t t t H r X.Y.Z.`. +.+++@+#+$+L.p.$+",
"[ j.~.%+w w o &+r & 1.n N.<.3.9.W.3.0.t w ].O.X A y.G w N.n 1.X.Y.*+`. +.+=+-+;+>+,+'+)+",
". 0 s.n.!+C w w y p ( j.z :.r.r.W.3.R H G ].O.  # K.!+!+y.p . ~+Y.*+`.{+]+^+/+(+_+:+<+[+",
". # k P l.2.w t N.o 1.j.z :.r.r.r.r.9.V <.].O.{ ^ F &.J v k # X.Y.Z.`.}+|+1+X.(+_+@+(+2+",
"# . 1 : &.D 3+G w H 4+A.5+6+R R R W.9.V <.H O.6 ; ~ L.:+7+7+:+X.8+9+R.R.R.0+a+b+;+;+b+7+",
"' = # ! M.M.n o z <.a./. .S C w C 9.9.V :.<.O.} ( | ,+>+@+@+c+d+e+S.f+g+g+++_+h+/+p.h+@+",
"= 1 = , 5 0 m.i t <.Y d.M E.t t t <.<.H I E &./ , 7 M.i+j+j+a+k+l+* m+n+n+>+o+p+c+,+q+j+",
". ! h ( * d _ @ f.I.r+S :.#.w t t w w t C r X . ! = s+s+X   t+u+v+w+x+)+y+;+/+(+_+t+> X ",
"* # 0 + / 3 + ' e.j.:.:.G t w w t w t t #.&+x a   . , #   7 . > z+A+B+C+D+E+/+(+_+t+# # ",
"3 % 1 [ 6 ~ _ & = k B #.t t t j B ].w t w &+x g   _ g   1 > t+c+F+x+G+ +.+Y./+k+p+,+7 | ",
"= @ > f 5 + b , ~ x B w t t C O k.$.w t t &+x / = ' l 1 & % h+_+++.+`.`..+Y.x._ X e # # ",
"9 > b } + { [ # j.H+o t t w C O k.$.w t t &+x . _ > 1 _ 5 g h+_+l+I+9+9+Q.J+M.# $ b . . ",
"$ $ $ [ 6 [ . _ y w t t w H :.K.k.$.w t t &+x _ , u % = ] 0 h+K+).{+L+L+|+n % $+$+L.+ [ ",
"+ f , b 3 = 7 ' y t t t #.%.M+&.k.$.w t t &+x > = 3 m g Q ~ ,+N+^+O+P+L+S.n s+Q+[+t+3 * ",
". 3 4 c + ' 0 { y t t t t y.e.= k.$.w t t &+x 7 ~ = a } g : q+<+=+P+f+9+|+R+:+;+Q+t+1 + ",
"7 a f 9 h u 6 ( y t t t G N t.( k.$.w t t &+x ; & ) h _ X 8 h+@+++*+C+H }+).@+c+/+s+u h ",
". _ | - b a = ^ y t w 2.n.K.e.< k.$.w t t &+x ^ . > 0 ] t+7+S+b+T+*+`.S.R.l+_+o+^ { 4 _ ",
"# . # _ ! # > # y t w %+J M.X 9 k.$.w t z o X = = | . x U+K+c+M.V+O+ + +.+++_+h+,+s+_ . ",
"= _   _ ~ ' # . y t w %+v : ^ e k.$.w t 8.j.~ c a - ( l x.o.i+< W+ +|+`..+X+U+p+(+t+. . ",
"% a / * # > j.1.7.t w %+v ^ 7 ' k.$.w t H+^ > [ f a l 9 X = '   W+ +|+`..+Y+2+p+c+t+> ~ ",
"  . + @ # $ ~.J.].t w j v > . , k.$.w t y = & = { ] ^ . / ( ' _ V+O+`. +.+++_+o+L.X } | ",
"' & 1 2 [ 3 n C w C :.j x & - 4 k.$.w t y 2 & 5 - 8 > 9 ,+c+o+# X+P+0+0+m+Z+p+U+= { 0 0 ",
"! 1 ; ! { _ n C w ].*., [ 9 ) d v I.C t y c * f g | & ^ U+K+(+d+Y+g+n+@+_+;+x.g 2 < ~ # ",
"& : : % * . ~.C w ].*.) , 5 ' + x 1.1.C H+) . = d d # . ,+-+#+)+A+n+).8+w+E+x.c 2 = > ~ ",
"& _ 1 4 s.M+1.C {.!+*._ & # [ a = 0 O.C `+l.P 7 9 9 ' h q e. @K+K+)+@.I+= ^+x.' ' 6 c _ ",
"6 h [ 3 c.I H w 8..@s.' ! . [ g . = j C H 0.=.& h , = ] @ x d+'+'+i++.+.N+d+M.  4 u + + ",
"/ g t.E 1.{.w w f.' = ~ ] ^ a m ~ ; j C w C `+E F : ; : = ~ 7 l ] $++@Z+2+} ^ u d # ' 1 ",
". u F %.H G G G P.f 3 > b } > f 9 & j H t G C !+J ! : 1 ~ @ 2 | } $+7 D+d+; , c # @ c _ ",
". 5 s.@@#@#@#@#@M+0 f { 8 f , ^ ' 0 .@$@#@#@#@R+P ! > > - f b > c d+%@%@&@# ; > ^ @ _ = ",
". & X M.M.M.M.M.s+%   @ 8 u } ~ @ m s+M.M.M.M.M.X = ' c , u q + 1 k M.M.x . ! ^ 2 . # ! ",
"1 a + # > : , l 4 g ] ^ > h } 7 g u ' < [ b 0 1 } [ u Q < , m % ' { q   _ = = ! . - 8 ! ",
"^ a h . . . # 5 _ ~ < 8 8 | c < { & - u 4 6 | > ; e 0 ] Q ~ g 0 : f @ . = Q 7 = - l a = ",
"' a   ( . = b 0 . # ~ 7 8 ; ; ; ^ 2 8 @ & ' ~ = : e @ { 1 ! e , ; c 1 = = } : ~ ] 5 . # "};
