/* XPM */
static char * Portal_Close_xpm[] = {
"28 55 255 2",
"  	c #94CE56",
". 	c #81BA4C",
"+ 	c #649A3D",
"@ 	c #7AB94A",
"# 	c #7EBB4C",
"$ 	c #70A844",
"% 	c #F4DFDF",
"& 	c #D57474",
"* 	c #CD2A2A",
"= 	c #CF3434",
"- 	c #D28989",
"; 	c #E7C7C7",
"> 	c #8BC451",
", 	c #5B9139",
"' 	c #588D37",
") 	c #83BD4D",
"! 	c #9CD65A",
"~ 	c #78B549",
"{ 	c #619A3D",
"] 	c #6DA843",
"^ 	c #659F3F",
"/ 	c #5D953B",
"( 	c #6FAB44",
"_ 	c #88C551",
": 	c #73AF46",
"< 	c #5F983C",
"[ 	c #C43838",
"} 	c #C93030",
"| 	c #C50606",
"1 	c #C40101",
"2 	c #C60707",
"3 	c #CF5454",
"4 	c #D68E8E",
"5 	c #C16969",
"6 	c #DEA0A0",
"7 	c #66A240",
"8 	c #76AF47",
"9 	c #99D358",
"0 	c #68A442",
"a 	c #6AA542",
"b 	c #6AA843",
"c 	c #C81919",
"d 	c #C30000",
"e 	c #C51111",
"f 	c #C16767",
"g 	c #ECC8C8",
"h 	c #85C24F",
"i 	c #75B147",
"j 	c #639D3E",
"k 	c #72AA45",
"l 	c #74AD46",
"m 	c #82C04E",
"n 	c #6FAD45",
"o 	c #C91D1D",
"p 	c #C71919",
"q 	c #B10D0D",
"r 	c #B50000",
"s 	c #C00000",
"t 	c #B14646",
"u 	c #88C250",
"v 	c #8BC752",
"w 	c #96D057",
"x 	c #86BF4F",
"y 	c #8FCA54",
"z 	c #DEAFAF",
"A 	c #D19292",
"B 	c #AD3A3A",
"C 	c #950909",
"D 	c #990000",
"E 	c #A10000",
"F 	c #B90000",
"G 	c #C80000",
"H 	c #981010",
"I 	c #AB3F3F",
"J 	c #6CAB44",
"K 	c #7BB54A",
"L 	c #76B849",
"M 	c #E2BCBC",
"N 	c #C57878",
"O 	c #A83434",
"P 	c #9B1616",
"Q 	c #910000",
"R 	c #900000",
"S 	c #9E0000",
"T 	c #BD0000",
"U 	c #E40000",
"V 	c #D80000",
"W 	c #B04343",
"X 	c #CC7979",
"Y 	c #EFDBDB",
"Z 	c #6DA542",
"` 	c #79B248",
" .	c #689F3F",
"..	c #E8C2C2",
"+.	c #9E2222",
"@.	c #8B0000",
"#.	c #8E0000",
"$.	c #C60000",
"%.	c #EB0000",
"&.	c #940000",
"*.	c #920303",
"=.	c #C16868",
"-.	c #E6BDBD",
";.	c #91CC55",
">.	c #E9CACA",
",.	c #CB8888",
"'.	c #8A0000",
").	c #7D0000",
"!.	c #750000",
"~.	c #E80000",
"{.	c #B00000",
"].	c #930505",
"^.	c #B85353",
"/.	c #72B147",
"(.	c #C87F7F",
"_.	c #800000",
":.	c #780000",
"<.	c #730000",
"[.	c #F40000",
"}.	c #D30000",
"|.	c #A11D1D",
"1.	c #70AF46",
"2.	c #E4BBBB",
"3.	c #960D0D",
"4.	c #760000",
"5.	c #880000",
"6.	c #A60000",
"7.	c #8D0000",
"8.	c #D49696",
"9.	c #DEB6B6",
"0.	c #6B0000",
"a.	c #AA0101",
"b.	c #840000",
"c.	c #B75151",
"d.	c #74B448",
"e.	c #D39494",
"f.	c #620000",
"g.	c #530000",
"h.	c #5E0000",
"i.	c #8F0000",
"j.	c #CC0000",
"k.	c #D89898",
"l.	c #670000",
"m.	c #4C0000",
"n.	c #BB0000",
"o.	c #E10000",
"p.	c #B24B4B",
"q.	c #BD6868",
"r.	c #A30000",
"s.	c #DD0000",
"t.	c #4A0000",
"u.	c #450000",
"v.	c #420000",
"w.	c #BB4242",
"x.	c #CA2323",
"y.	c #D99E9E",
"z.	c #4F0000",
"A.	c #3D0000",
"B.	c #3B0000",
"C.	c #BE4242",
"D.	c #C91919",
"E.	c #A12828",
"F.	c #7A0000",
"G.	c #AC0404",
"H.	c #8F0909",
"I.	c #C82626",
"J.	c #BB6262",
"K.	c #500000",
"L.	c #400000",
"M.	c #550000",
"N.	c #C60F0F",
"O.	c #C32828",
"P.	c #AE4343",
"Q.	c #9D1C1C",
"R.	c #390000",
"S.	c #BC4747",
"T.	c #350000",
"U.	c #2E0000",
"V.	c #BF0505",
"W.	c #BC5C5C",
"X.	c #290000",
"Y.	c #DA9797",
"Z.	c #270000",
"`.	c #C96262",
" +	c #210000",
".+	c #6C0000",
"++	c #A91919",
"@+	c #2B0000",
"#+	c #160000",
"$+	c #1B0000",
"%+	c #790000",
"&+	c #D04D4D",
"*+	c #D51D1D",
"=+	c #DEA6A6",
"-+	c #D75E5E",
";+	c #ED1717",
">+	c #CB3232",
",+	c #C25555",
"'+	c #DC9797",
")+	c #D46565",
"!+	c #5D0000",
"~+	c #C71414",
"{+	c #CF7D7D",
"]+	c #C52323",
"^+	c #BF1616",
"/+	c #AD0000",
"(+	c #C10D0D",
"_+	c #D36666",
":+	c #CE3838",
"<+	c #C54242",
"[+	c #C53A3A",
"}+	c #AD2424",
"|+	c #B75252",
"1+	c #AF2323",
"2+	c #650000",
"3+	c #9A0C0C",
"4+	c #C83E3E",
"5+	c #D16161",
"6+	c #970000",
"7+	c #C01616",
"8+	c #DA9B9B",
"9+	c #A12525",
"0+	c #CD0000",
"a+	c #7EB74B",
"b+	c #D27878",
"c+	c #CF4C4C",
"d+	c #A02424",
"e+	c #9D2020",
"f+	c #D05050",
"g+	c #570000",
"h+	c #740000",
"i+	c #BA5C5C",
"j+	c #DB9D9D",
"k+	c #DC8787",
"l+	c #520000",
"m+	c #6D0000",
"n+	c #950D0D",
"o+	c #9F1717",
"p+	c #D17F7F",
"q+	c #930C0C",
"r+	c #A62E2E",
"s+	c #9D1212",
"t+	c #DFAAAA",
"u+	c #9C1313",
"v+	c #C40000",
"w+	c #C50505",
"x+	c #6BA241",
"y+	c #D07474",
"z+	c #A42B2B",
"A+	c #C91616",
"B+	c #C50202",
"C+	c #E3B5B5",
"D+	c #CE3B3B",
"E+	c #D15959",
"F+	c #8DC953",
"  . + @ # $ % & * * * * * = - ; > > , ' ) ! ~ { ] ^ / ( ",
"] _ : < { , [ } | 1 1 1 1 2 3 4 5 6 7 8 9 8 , 0 ~ a , b ",
"7 7 7 7 0 ' c | 1 1 1 d 1 1 e } 8 f g h i j j ^ i k l m ",
", 7 / ^ h n o p p e q r d d 1 s q t 4 g / ^ b _ h u v a ",
"~ w x j . y j z A B C D E F 1 G F H I f % i J : y h b ^ ",
"/ K w v L % M N O P Q Q R S T U V D C O W X Y j m ~ Z w ",
") `  .i ..M - +.Q Q Q Q Q @.#.$.%.F &.*.H =.-.+ a n 9   ",
";.  h n >.,.+.Q Q Q #.@.'.).!.&.~.U {.Q ].^.X ` 7 v 9  .",
"< ^ /.L -.(.H Q Q #._.:.:.!.<._.s [.}.D Q C |.% 1.w i ' ",
"' , ^ g 2.N 3.Q #._.4.!.!.!.!.4.5.G U 6.7.Q O 8.g m a / ",
"K w ;.g 9.+.Q #._.4.!.!.!.!.<.0.<.6.%.a.b.Q H c.g n d._ ",
"9 ) a % e.P #._.!.!.!.!.!.0.f.g.h.i.%.j.Q Q C c..., ' ^ ",
" ./ { k.^.3.5._.&.5.!.!.l.g.m.m.m.f.n.o.E @.].p.4 Y 7 l ",
"+ $ ..q.+.&.r.{.s.{.4.!.v m.m.t.u.v.i.j.5.b.Q 3.w.p x.( ",
"_   y.w C D $.%.s.D !.l.z.m.t.u.A.B.'.F 4.).@.C C.D.o ' ",
"' 6 A E.&.r ~.o.D !.<./.m.m.v.A.A.B.F.G.!.!.).H.C.D.I.[ ",
"7 J.I 3.D j.o.D !.!.f.K.m.t.L.A.A.B.m.M.f.!.4.H.C.N.N.O.",
"J P.Q.&.r ~.V ).<.!.h.m.m.t.L.A.A.B.B.R.^ 4.b.3.S.N.N.O.",
"b P.Q.&.d %.F F.<.<.h.m.m.v.A.A.T.U.U.U.g.4.b.].P V.N.O.",
"6 W.P &.$.s.@.!.4.0.K.m.m.L.A.R.U.X.X.X.g.!.F.@.D T N.O.",
"Y.0 C E V F ).<.:.0.m.m.m.L.B.T.X.X.X.Z.K.!.4.'.D T N.O.",
"..`.Q.s o.i.!.!.:.0.m.m.t.L.R.U.X.X.Z. +L..+!.5.D T N.O.",
"~ P.++o.%.5.<.!.:.0.m.m.v.A.R.@+X.Z. +#+$+T.%+@.E s N.O.",
"/.&+*+[.j._.<.!.:.0.m.m.v.A.R.@+X. +#+#+$+T.%+i.F 1 N.O.",
"=+-+;+U R <.!.!.:.0.m.m.v.A.R.@+X. +#+#+$+T.%+R n.| >+,+",
"'+= U T _.<.!.!.:.0.m.m.v.A.R.@+X. +#+#+$+T.%+R n.2 )+; ",
"'+= U a.:.!.!.!.:.0.m.m.v.A.R.@+X. +#+#+U.!+!.R n.2 ~+7 ",
"{+>+}.r.F.!.!.!.:.0.m.m.v.A.R.@+X. +#+#+t.!.4.R F 2 ~+n ",
"]+^+/+&.F.!.!.!.:.0.m.m.v.A.R.@+X. +#+#+t.!.:.r.s 2 ~+b ",
"I.(+E 7.F.!.!.!.:.0.m.m.v.A.R.@+X. +#+#+t.!.F.{.$.2 ~+/ ",
"_+D.E 7.F.!.!.!.:.0.m.m.v.A.B.T.X.Z.$+#+t.!.F.{.$.2 ~+J ",
":+N.E 7.F.!.!.!.:.0.m.m.v.A.A.R.@+X.Z. +K.!.F.{.$.2 ~++ ",
"D.d E 7.F.!.!.!.:.0.m.m.v.A.A.R.@+X.X.X.g.!.F.{.1 N.~+_ ",
"D.d E 7.F.!.!.!.:.0.m.m.v.A.A.R.@+X.X.X.g.!.b.F N.<+[+{ ",
"D.d E #.).4.!.!.:.0.m.m.v.A.A.A.T.U.U.U.g.4.{.U N.B }+, ",
"D.d E R @.:.<.!.:.0.m.m.u.A.A.A.A.B.B.B.{ Q s.~.a.O |+: ",
"D.1 1+H @.).b.!.4.0.m.m.t.L.A.A.A.A.A.v.2+d o.F 3+<+6 # ",
"4+D.5+E.@.5.r a.D 0.m.m.m.L.A.A.A.A.A.K.6+V r R 3+7+{ , ",
"8+:+3 9+7.5.d ~.0+l.g.m.m.u.A.A.A.A.B.  n.s.E ].a+b+j 0 ",
"'+:+c+d+i.5.E V $.:.h.m.m.m.u.A.A.A.u.b.s.F R 3.W.; J ^ ",
"'+:+c+d+*.5.5.}.U S h.m.m.m.t.u.v.A.K.r.1 S Q 3.e+k { _ ",
"'+:+c+d+*.'.).{.[.s 0.w m.m.m.m.t.v.u.<.@.@.].O ,+' ' ] ",
"'+:+f+d+*.i._.Q o.s :.0.g.m.m.m.m.M.g+h+@.Q H i+-.] ` m ",
"j+k+4 e+C Q '.b.s V &.<.7 m.z.l+f.m+h+b.Q ].B 8.g @ v ^ ",
"# >.Y }+|.C i.@.a.s.F F.0.n j 0.!.:._.7.Q C W ..# @ a , ",
"{ Z / ] }+n+Q R E }.%.6.4.0.!.!.F.'.#.Q Q P W < 1./.' 0 ",
", # x + l o+C Q &.{.o.}.S F.!.:._.i.Q Q C p.p+, < ] + , ",
" .< m # a+}+o+*.Q E n.V U D ).@.i.Q Q Q q+5 g ^ j { m ) ",
"  . + @ # $ r+3+Q Q &.{.V {.D &.Q Q Q ].s+W.-.{ ] ^ / ( ",
"] _ : < { , j+t C R R &.r d T r.Q ].3+++(+I.b+0 ~ a , b ",
"7 7 7 7 0 ' g t+o+u+Q &.G.v+1 n.6.G.^+p w+* `.^ i k l m ",
", 7 / ^ h n x+! t+y+O z+w.A+1 1 d v+B+7+I.y+k._ h u v a ",
"~ w x j . y j w -.C+t+[+8+5+A+B+B+B+B+]+y+2.Y : y h b ^ ",
"/ K w v L w # n 7 K ! y >.p+<+:+D+D+:+E+=+... j m ~ Z w ",
") `  .i L F+y ^ i ! v , / < g [+[+[+[+g # F+9 + a n 9   "};
