/* XPM */
static char * Portal_Open_xpm[] = {
"28 55 288 2",
"  	c #94CE56",
". 	c #81BA4C",
"+ 	c #649A3D",
"@ 	c #7AB94A",
"# 	c #7EBB4C",
"$ 	c #70A844",
"% 	c #D4DBEF",
"& 	c #98DFF7",
"* 	c #67DEFC",
"= 	c #4DDAFD",
"- 	c #8BC451",
"; 	c #5B9139",
"> 	c #588D37",
", 	c #83BD4D",
"' 	c #9CD65A",
") 	c #78B549",
"! 	c #619A3D",
"~ 	c #6DA843",
"{ 	c #659F3F",
"] 	c #5D953B",
"^ 	c #6FAB44",
"/ 	c #88C551",
"( 	c #73AF46",
"_ 	c #5F983C",
": 	c #B7E0F1",
"< 	c #95CEEF",
"[ 	c #83DAF8",
"} 	c #3BD6FD",
"| 	c #32D5FF",
"1 	c #36D5FE",
"2 	c #67DCFB",
"3 	c #9FDBF3",
"4 	c #66A240",
"5 	c #76AF47",
"6 	c #99D358",
"7 	c #68A442",
"8 	c #6AA542",
"9 	c #6AA843",
"0 	c #25D4FF",
"a 	c #23D3FF",
"b 	c #57DAFD",
"c 	c #59BBED",
"d 	c #84C8EF",
"e 	c #B6D6ED",
"f 	c #85C24F",
"g 	c #75B147",
"h 	c #639D3E",
"i 	c #72AA45",
"j 	c #74AD46",
"k 	c #82C04E",
"l 	c #6FAD45",
"m 	c #37C8F8",
"n 	c #30D0FD",
"o 	c #26D4FF",
"p 	c #29D4FF",
"q 	c #28CFFD",
"r 	c #23CDFC",
"s 	c #34A8E9",
"t 	c #6FBCEB",
"u 	c #9ECDEE",
"v 	c #70AF46",
"w 	c #88C250",
"x 	c #8BC752",
"y 	c #96D057",
"z 	c #86BF4F",
"A 	c #8FCA54",
"B 	c #7BC5EE",
"C 	c #4ED2FA",
"D 	c #71CEF4",
"E 	c #4BB1EB",
"F 	c #21ABED",
"G 	c #22C2F8",
"H 	c #32A0E6",
"I 	c #5CAFE8",
"J 	c #75C3EE",
"K 	c #6CAB44",
"L 	c #7BB54A",
"M 	c #76B849",
"N 	c #89D0F3",
"O 	c #81C2EC",
"P 	c #62AFE7",
"Q 	c #2892E1",
"R 	c #208FE1",
"S 	c #1E92E3",
"T 	c #21ADEF",
"U 	c #23D0FB",
"V 	c #21E3F8",
"W 	c #21D2F6",
"X 	c #1F92E2",
"Y 	c #238FE1",
"Z 	c #45A1E5",
"` 	c #B1D0EC",
" .	c #6DA542",
"..	c #79B248",
"+.	c #689F3F",
"@.	c #8DC953",
"#.	c #5EB9EC",
"$.	c #4AA8E7",
"%.	c #2A92E1",
"&.	c #2A93E1",
"*.	c #1F8DE0",
"=.	c #26A5EC",
"-.	c #1FDFF3",
";.	c #1DEDEC",
">.	c #22A9E7",
",.	c #1F8DE1",
"'.	c #2E96E3",
").	c #56B2EA",
"!.	c #91CC55",
"~.	c #8CD5F5",
"{.	c #389BE3",
"].	c #228FE1",
"^.	c #267AE2",
"/.	c #2D63E1",
"(.	c #2994EB",
"_.	c #1EE9ED",
":.	c #4CA3E5",
"<.	c #8BC5EC",
"[.	c #72B147",
"}.	c #6BB9EB",
"|.	c #2183E0",
"1.	c #2870E1",
"2.	c #315DE2",
"3.	c #344FE0",
"4.	c #20D0ED",
"5.	c #1CF6EC",
"6.	c #208BE0",
"7.	c #3F9DE3",
"8.	c #74B448",
"9.	c #3351E0",
"0.	c #3450E0",
"a.	c #3157E1",
"b.	c #54ABE8",
"c.	c #40A1E5",
"d.	c #334FDF",
"e.	c #3254E1",
"f.	c #26B4F3",
"g.	c #3D9EE5",
"h.	c #6CD9FB",
"i.	c #3350DF",
"j.	c #334EDE",
"k.	c #304AD2",
"l.	c #324AD8",
"m.	c #23BCF0",
"n.	c #41A0E5",
"o.	c #3D9CE2",
"p.	c #2C66E1",
"q.	c #2E48CB",
"r.	c #2C43BE",
"s.	c #2E45C8",
"t.	c #2B64D5",
"u.	c #1FD4E8",
"v.	c #1FE4EC",
"w.	c #24A0EB",
"x.	c #4BA4E5",
"y.	c #2289E1",
"z.	c #2E73E5",
"A.	c #2B44BE",
"B.	c #2B41B9",
"C.	c #258BCF",
"D.	c #28A1F2",
"E.	c #2776DF",
"F.	c #6AB5EA",
"G.	c #9ED3EF",
"H.	c #80BFEB",
"I.	c #24B6F4",
"J.	c #22CAF5",
"K.	c #21B6E6",
"L.	c #2E49CC",
"M.	c #2C43BD",
"N.	c #2941B7",
"O.	c #263AA6",
"P.	c #2438A0",
"Q.	c #216EB3",
"R.	c #23C1E4",
"S.	c #2E68E4",
"T.	c #2088E1",
"U.	c #54B2EB",
"V.	c #44D2FB",
"W.	c #74D7F8",
"X.	c #2691E1",
"Y.	c #1F9CE6",
"Z.	c #1DF2ED",
"`.	c #23C5E8",
" +	c #2D6DE3",
".+	c #304AD3",
"++	c #2C43C0",
"@+	c #24379C",
"#+	c #23369A",
"$+	c #54CFF8",
"%+	c #71C4F0",
"&+	c #7ED0F3",
"*+	c #5EB7EB",
"=+	c #21CAE9",
"-+	c #2F48CD",
";+	c #2B42BB",
">+	c #263CA9",
",+	c #235CB0",
"'+	c #3052D7",
")+	c #20D3F3",
"!+	c #1FDCE9",
"~+	c #2539A3",
"{+	c #213394",
"]+	c #283DB2",
"^+	c #21BFF5",
"/+	c #26ABEC",
"(+	c #213291",
"_+	c #1D2E85",
":+	c #1D2D80",
"<+	c #2395E4",
"[+	c #7EC9F1",
"}+	c #20C7F0",
"|+	c #21DAF5",
"1+	c #314DD7",
"2+	c #2E52D2",
"3+	c #7AC3EE",
"4+	c #2C43BF",
"5+	c #2C43BC",
"6+	c #20318E",
"7+	c #1B2A78",
"8+	c #24379E",
"9+	c #2C7DE4",
"0+	c #293EB1",
"a+	c #1F2F87",
"b+	c #1B2A79",
"c+	c #17256A",
"d+	c #98CFEF",
"e+	c #56C3F0",
"f+	c #273CAB",
"g+	c #1C2B7C",
"h+	c #162261",
"i+	c #51E4F1",
"j+	c #172364",
"k+	c #31ECF2",
"l+	c #5AD1F7",
"m+	c #42D9FF",
"n+	c #1FE7F3",
"o+	c #1FC2E8",
"p+	c #62D0F6",
"q+	c #15215F",
"r+	c #5FD0F7",
"s+	c #64D5F8",
"t+	c #47D9FE",
"u+	c #2580E2",
"v+	c #45D8FD",
"w+	c #20B2F1",
"x+	c #2DD4FF",
"y+	c #24D5FF",
"z+	c #72CEF3",
"A+	c #223597",
"B+	c #30D5FE",
"C+	c #7DDAF9",
"D+	c #28DBFB",
"E+	c #3FD1FC",
"F+	c #2D5FDE",
"G+	c #8ECAEF",
"H+	c #33B8F1",
"I+	c #2C88EB",
"J+	c #27A4E3",
"K+	c #40D7FE",
"L+	c #2D98E3",
"M+	c #4ED8FC",
"N+	c #1F97E4",
"O+	c #5DB1E9",
"P+	c #2A40B6",
"Q+	c #263AAA",
"R+	c #A2D6F3",
"S+	c #4DA3E5",
"T+	c #2A7BE0",
"U+	c #2940B5",
"V+	c #2C4BC4",
"W+	c #43D8FD",
"X+	c #47D9FD",
"Y+	c #44D0FA",
"Z+	c #ACD6F2",
"`+	c #2C44C3",
" @	c #B1D2EB",
".@	c #86C4ED",
"+@	c #7EB74B",
"@@	c #6BCEF4",
"#@	c #60B1E7",
"$@	c #2992E1",
"%@	c #1F99E5",
"&@	c #49A6E6",
"*@	c #5CD4F9",
"=@	c #6BA241",
"-@	c #8AD7F4",
";@	c #7FD8F5",
"  . + @ # $ % & * = = = = = & % - - ; > , ' ) ! ~ { ] ^ ",
"~ / ( _ ! : < [ } | | | | 1 2 3 ^ ^ 4 5 6 5 ; 7 ) 8 ; 9 ",
"4 4 4 4 7 > = 1 0 a a a a a 1 b c d e f g h h { g i j k ",
"; 4 ] { f l m n o p q r 0 a 0 n s t u v ] { 9 / f w x 8 ",
") y z h . A B C * D E F G r 0 a G H I J { g K ( A f 9 { ",
"] L y x M y e N O P Q R S T U V W X Y Z d ` : h k )  .y ",
", ..+.g M @.#.$.%.&.*.*.*.R =.-.;.>.,.'.).I J + 8 l 6   ",
"!.  f l : ~.{.].X *.*.*.*.^./.(._.-.@.].R :.<.e 4 x 6 +.",
"_ { [.M M }.k ,.,.*.|.1.1.2.3.2.4.5.4.S 6.7.O < v y g > ",
"> ; { 9 J D 8.*.*.|./.9.9.0.0.a.(.-._.>.,.Y b.~.8.k 8 ] ",
"L y !.@ c.$.Q *.|./.9.0.0.0.0.d.e.(._.f.^.6.g.I h.l 8./ ",
"6 , 8 h c.%.Y |./.0.0.0.0.i.j.k.l.1.;.m.1.*.R 7.[.; > { ",
"+.] ! B n.o.6.p.a.e.0.0.j.k.q.r.s.t.u.v.w.6.6.x.<.e 4 j ",
"+ $ j u b.].y.z.T (.e.3.k.A.B.r.B.A.C.v.D.E.6.%.F.G.< ^ ",
"/   e H.g.S I.J.;.K.a.j.L.M.M.N.O.P.Q.R.S.p.T.R U.V.W.: ",
"> _ B x.X.Y.W Z.`. +9..+++M.N.O.@+#+Q.K.a.e.1.6.U.} $+%+",
"4 &+*+Z X m.;.=+ +0.j.-+. ;+>+@+@+#+,+6.'+3.e.^.U.1 n m ",
"K < b.,.Y.)+v.z.3.0.k.M.r.;+O.@+@+@+P.O.;+i.a.^.U.1 a a ",
"9 < b.R m.Z.!+S.3.0.k.M.M.N.~+@+#+{+{+{+]+i.1.6.$.n a a ",
"[.< b.R ^+;./+2.3.j.L.M.M.>+@+#+(+_+:+:+O.i.p.|.<+G a a ",
"e [+g.R }+|+z.3.0.1+2+M.M.>+@+#+_+:+:+:+O.i.9.E.S G a a ",
"< 3+g. .!+/+2.3.0.1+2+4+5+>+#+6+:+:+:+7+8+j.9.E.S G a a ",
"% G.I =+;.9+3.0.0.1+2+M.0+~+#+a+:+:+b+c+7+;+9.E.S G a a ",
"[.d+e+v.;.9+3.0.0.1+2+M.f+@+#+a+:+g+c+h+h+8+0.^.F r a a ",
"K d+i+5.>.2.3.0.0.1+2+M.f+@+#+a+:+7+j+h+h+P.i.^.^+0 p a ",
"h.b k+v.9+3.0.0.0.1+2+M.f+@+#+a+:+b+j+h+h+8+i.^.^+0 l+~.",
"h.m+n+o+S.3.0.0.0.1+2+M.f+@+#+a+:+b+j+h+j+~+i.^.^+p p+` ",
": m+V K./.3.0.0.0.1+2+M.f+@+#+a+:+b+j+q+a+k.i.^.^+p r+% ",
"s+t+U w /.3.0.0.0.1+2+M.f+@+#+a+:+b+j+q+{+i.9.u+G p r+% ",
"v+p w+R /.3.0.0.0.1+2+M.f+@+#+a+:+7+j+q+{+d.9.D.a p r+% ",
"l+x+T 6./.3.0.0.0.1+2+M.f+@+#+6+:+g+c+q+{+d.9.D.y+p r+% ",
"z+1 T 6./.3.0.0.0.1+2+M.f+@+@+A+_+:+b+c+#+d.9.D.y+p r+% ",
"v+0 T 6./.3.0.0.0.1+2+M.f+@+@+#+_+:+:+g+O.d.9.D.y+p r+% ",
"v+0 T 6./.3.0.0.0.1+2+M.f+@+@+#+_+:+:+:+O.d.9.D.y+B+C+% ",
"v+0 T 6./.3.0.0.0.1+2+M.f+@+@+#+6+:+:+:+O.i.z.}+D+E+` : ",
"v+0 T *.E.a.3.0.0.1+2+M.f+@+@+@+#+(+6+6+]+i.=.5.}+g.H.% ",
"v+0 F *.T.F+9.0.0.1+2+M.N.~+@+@+@+@+@+@+N.9+!+_.>.:.G+% ",
"v+p H+X 6.S.I+/.e.1+2+M.M.>+@+@+@+@+@+>+k.J+u.>.<+Z % ; ",
"[+K+V.L+y. +I.=+>.'+L.M.M.f+@+@+@+@+@+]+9+!+K.6.&.n.h 7 ",
"% m+M+t , 1.f.V =+a.L.M.r.B.O.@+@+@+@+N.J+u.N+*.$.O+K { ",
"h.m+t+N g.|.9+W u.S.k.M.M.r.P+Q+P.@+f+E.u.K.*.R ).3 ! / ",
"h.m+t+R+S+|.S.m.Z.K.'+4+++M.A.B.]+~+Q+T+w.u+6.%.).B > ~ ",
"h.m+t+R+S+T./.9+;.`.a..+++M.M.M.M.U+Q+V+E.T.6.7.<.e ..k ",
"h.W+X+R+S+*.u+ +}+=+S.j.L.M.M.M.V+-+l.F+T.*.Q x.7 @ x { ",
"# Y+Y+Z+F.].y.1.>.v.w.3.k.`+`+L.1+j.e.1.6.*.b.< # @ 8 ; ",
"!  .e  @.@x.y.6.w.-.u.z.d.k.1+d.e./.1.T.*.*.b.< v [.> 7 ",
"; # : ` : }.~ *.N+}+Z.`.S.d.0.3.a.|.*.*.*.] I %+_ ~ + ; ",
"+._ k # +@@@{.].6.] |+n+f.S.9.p.1.T.*.*.Y Z #@{ h ! k , ",
"  . + @ # : o.$@*.N+F }+n+w.1.T.*.*.*.*.'.Y+: ! ~ { ] ^ ",
"~ / ( _ ! ` H.I R ,.*.%@}+J.w+%@*.*.6.Q H+$+%+7 ) 8 ; 9 ",
"4 4 4 4 7 > B G+&@&.*.*.w+a a ^+N+<+s H+x+1 *@d g i j k ",
"; 4 ] { f l =@' .@F.&.&.H+0 a a G G x+p 0 M+-@< f w x 8 ",
") y z h . A h y 3 N O+O+c K+0 a a a a 0 v+;@3 % A f 9 { ",
"] L y x M y # l 4 L ' A % D } x+| | x+M+-@< . h k )  .y ",
", ..+.g M @.A { g ' x ; ] %+= = = = = @@3 @.6 + 8 l 6   "};
